<?xml version="1.0" encoding="UTF-8"?>
<svg xmlns="http://www.w3.org/2000/svg" xmlns:xlink="http://www.w3.org/1999/xlink" width="106pt" height="150pt" viewBox="0 0 106 150" version="1.1">
<defs>
<linearGradient id="linear0" gradientUnits="userSpaceOnUse" x1="220.3684" y1="422.2874" x2="129.5904" y2="422.2874" >
<stop offset="0" style="stop-color:rgb(100%,100%,100%);stop-opacity:1;"/>
<stop offset="1" style="stop-color:rgb(0%,0%,0%);stop-opacity:1;"/>
</linearGradient>
<linearGradient id="linear1" gradientUnits="userSpaceOnUse" x1="68.0345" y1="390.205" x2="2.8307" y2="390.205" gradientTransform="matrix(-1,0,0,-1,462,807.8823)">
<stop offset="0" style="stop-color:rgb(100%,100%,100%);stop-opacity:1;"/>
<stop offset="1" style="stop-color:rgb(0%,0%,0%);stop-opacity:1;"/>
</linearGradient>
<linearGradient id="linear2" gradientUnits="userSpaceOnUse" x1="174.9794" y1="462.3709" x2="174.9794" y2="382.2038" >
<stop offset="0" style="stop-color:rgb(44.705882%,9.019608%,12.941176%);stop-opacity:1;"/>
<stop offset="0.00479337" style="stop-color:rgb(46.27451%,11.764706%,15.686275%);stop-opacity:1;"/>
<stop offset="0.04" style="stop-color:rgb(57.647059%,30.196078%,32.941176%);stop-opacity:1;"/>
<stop offset="0.0783" style="stop-color:rgb(67.843137%,46.666667%,49.019608%);stop-opacity:1;"/>
<stop offset="0.1189" style="stop-color:rgb(76.470588%,61.176471%,62.745098%);stop-opacity:1;"/>
<stop offset="0.1624" style="stop-color:rgb(83.921569%,73.333333%,74.509804%);stop-opacity:1;"/>
<stop offset="0.2098" style="stop-color:rgb(89.803922%,83.137255%,83.921569%);stop-opacity:1;"/>
<stop offset="0.2625" style="stop-color:rgb(94.509804%,90.588235%,90.980392%);stop-opacity:1;"/>
<stop offset="0.3234" style="stop-color:rgb(97.647059%,96.078431%,96.078431%);stop-opacity:1;"/>
<stop offset="0.4001" style="stop-color:rgb(99.607843%,99.215686%,99.215686%);stop-opacity:1;"/>
<stop offset="0.5431" style="stop-color:rgb(100%,100%,100%);stop-opacity:1;"/>
<stop offset="0.6304" style="stop-color:rgb(98.823529%,99.607843%,100%);stop-opacity:1;"/>
<stop offset="0.6944" style="stop-color:rgb(95.294118%,98.039216%,99.215686%);stop-opacity:1;"/>
<stop offset="0.751" style="stop-color:rgb(89.019608%,95.686275%,98.431373%);stop-opacity:1;"/>
<stop offset="0.8032" style="stop-color:rgb(80%,92.54902%,97.647059%);stop-opacity:1;"/>
<stop offset="0.8525" style="stop-color:rgb(68.627451%,88.235294%,96.078431%);stop-opacity:1;"/>
<stop offset="0.8996" style="stop-color:rgb(54.509804%,83.137255%,94.117647%);stop-opacity:1;"/>
<stop offset="0.945" style="stop-color:rgb(38.039216%,76.862745%,92.156863%);stop-opacity:1;"/>
<stop offset="0.9879" style="stop-color:rgb(19.215686%,69.803922%,89.803922%);stop-opacity:1;"/>
<stop offset="1" style="stop-color:rgb(13.333333%,67.45098%,89.019608%);stop-opacity:1;"/>
</linearGradient>
<linearGradient id="linear3" gradientUnits="userSpaceOnUse" x1="214.7647" y1="400.2353" x2="275.3938" y2="400.2353" >
<stop offset="0" style="stop-color:rgb(100%,100%,100%);stop-opacity:1;"/>
<stop offset="0.1911" style="stop-color:rgb(98.823529%,99.607843%,100%);stop-opacity:1;"/>
<stop offset="0.3311" style="stop-color:rgb(95.294118%,98.039216%,99.215686%);stop-opacity:1;"/>
<stop offset="0.4549" style="stop-color:rgb(89.019608%,95.686275%,98.431373%);stop-opacity:1;"/>
<stop offset="0.5692" style="stop-color:rgb(80%,92.54902%,97.647059%);stop-opacity:1;"/>
<stop offset="0.6772" style="stop-color:rgb(68.627451%,88.235294%,96.078431%);stop-opacity:1;"/>
<stop offset="0.7803" style="stop-color:rgb(54.509804%,83.137255%,94.117647%);stop-opacity:1;"/>
<stop offset="0.8796" style="stop-color:rgb(38.039216%,76.862745%,92.156863%);stop-opacity:1;"/>
<stop offset="0.9734" style="stop-color:rgb(19.215686%,69.803922%,89.803922%);stop-opacity:1;"/>
<stop offset="1" style="stop-color:rgb(13.333333%,67.45098%,89.019608%);stop-opacity:1;"/>
</linearGradient>
<linearGradient id="linear4" gradientUnits="userSpaceOnUse" x1="220.1356" y1="446.6471" x2="280.7647" y2="446.6471" >
<stop offset="0" style="stop-color:rgb(100%,100%,100%);stop-opacity:1;"/>
<stop offset="1" style="stop-color:rgb(44.705882%,9.019608%,12.941176%);stop-opacity:1;"/>
</linearGradient>
<linearGradient id="linear5" gradientUnits="userSpaceOnUse" x1="327.6018" y1="446.6471" x2="440.4137" y2="446.6471" >
<stop offset="0" style="stop-color:rgb(100%,100%,100%);stop-opacity:1;"/>
<stop offset="1" style="stop-color:rgb(44.705882%,9.019608%,12.941176%);stop-opacity:1;"/>
</linearGradient>
<linearGradient id="linear6" gradientUnits="userSpaceOnUse" x1="315.5861" y1="404.8577" x2="315.5861" y2="384.5659" >
<stop offset="0" style="stop-color:rgb(100%,100%,100%);stop-opacity:1;"/>
<stop offset="0.1911" style="stop-color:rgb(98.823529%,99.607843%,100%);stop-opacity:1;"/>
<stop offset="0.3311" style="stop-color:rgb(95.294118%,98.039216%,99.215686%);stop-opacity:1;"/>
<stop offset="0.4549" style="stop-color:rgb(89.019608%,95.686275%,98.431373%);stop-opacity:1;"/>
<stop offset="0.5692" style="stop-color:rgb(80%,92.54902%,97.647059%);stop-opacity:1;"/>
<stop offset="0.6772" style="stop-color:rgb(68.627451%,88.235294%,96.078431%);stop-opacity:1;"/>
<stop offset="0.7803" style="stop-color:rgb(54.509804%,83.137255%,94.117647%);stop-opacity:1;"/>
<stop offset="0.8796" style="stop-color:rgb(38.039216%,76.862745%,92.156863%);stop-opacity:1;"/>
<stop offset="0.9734" style="stop-color:rgb(19.215686%,69.803922%,89.803922%);stop-opacity:1;"/>
<stop offset="1" style="stop-color:rgb(13.333333%,67.45098%,89.019608%);stop-opacity:1;"/>
</linearGradient>
<linearGradient id="linear7" gradientUnits="userSpaceOnUse" x1="294.6046" y1="404.8577" x2="294.6046" y2="384.5659" >
<stop offset="0" style="stop-color:rgb(100%,100%,100%);stop-opacity:1;"/>
<stop offset="0.1911" style="stop-color:rgb(98.823529%,99.607843%,100%);stop-opacity:1;"/>
<stop offset="0.3311" style="stop-color:rgb(95.294118%,98.039216%,99.215686%);stop-opacity:1;"/>
<stop offset="0.4549" style="stop-color:rgb(89.019608%,95.686275%,98.431373%);stop-opacity:1;"/>
<stop offset="0.5692" style="stop-color:rgb(80%,92.54902%,97.647059%);stop-opacity:1;"/>
<stop offset="0.6772" style="stop-color:rgb(68.627451%,88.235294%,96.078431%);stop-opacity:1;"/>
<stop offset="0.7803" style="stop-color:rgb(54.509804%,83.137255%,94.117647%);stop-opacity:1;"/>
<stop offset="0.8796" style="stop-color:rgb(38.039216%,76.862745%,92.156863%);stop-opacity:1;"/>
<stop offset="0.9734" style="stop-color:rgb(19.215686%,69.803922%,89.803922%);stop-opacity:1;"/>
<stop offset="1" style="stop-color:rgb(13.333333%,67.45098%,89.019608%);stop-opacity:1;"/>
</linearGradient>
<linearGradient id="linear8" gradientUnits="userSpaceOnUse" x1="357.3107" y1="415.8518" x2="357.3107" y2="395.5601" >
<stop offset="0" style="stop-color:rgb(100%,100%,100%);stop-opacity:1;"/>
<stop offset="0.1911" style="stop-color:rgb(98.823529%,99.607843%,100%);stop-opacity:1;"/>
<stop offset="0.3311" style="stop-color:rgb(95.294118%,98.039216%,99.215686%);stop-opacity:1;"/>
<stop offset="0.4549" style="stop-color:rgb(89.019608%,95.686275%,98.431373%);stop-opacity:1;"/>
<stop offset="0.5692" style="stop-color:rgb(80%,92.54902%,97.647059%);stop-opacity:1;"/>
<stop offset="0.6772" style="stop-color:rgb(68.627451%,88.235294%,96.078431%);stop-opacity:1;"/>
<stop offset="0.7803" style="stop-color:rgb(54.509804%,83.137255%,94.117647%);stop-opacity:1;"/>
<stop offset="0.8796" style="stop-color:rgb(38.039216%,76.862745%,92.156863%);stop-opacity:1;"/>
<stop offset="0.9734" style="stop-color:rgb(19.215686%,69.803922%,89.803922%);stop-opacity:1;"/>
<stop offset="1" style="stop-color:rgb(13.333333%,67.45098%,89.019608%);stop-opacity:1;"/>
</linearGradient>
<linearGradient id="linear9" gradientUnits="userSpaceOnUse" x1="335.6048" y1="415.8518" x2="335.6048" y2="395.5601" >
<stop offset="0" style="stop-color:rgb(100%,100%,100%);stop-opacity:1;"/>
<stop offset="0.1911" style="stop-color:rgb(98.823529%,99.607843%,100%);stop-opacity:1;"/>
<stop offset="0.3311" style="stop-color:rgb(95.294118%,98.039216%,99.215686%);stop-opacity:1;"/>
<stop offset="0.4549" style="stop-color:rgb(89.019608%,95.686275%,98.431373%);stop-opacity:1;"/>
<stop offset="0.5692" style="stop-color:rgb(80%,92.54902%,97.647059%);stop-opacity:1;"/>
<stop offset="0.6772" style="stop-color:rgb(68.627451%,88.235294%,96.078431%);stop-opacity:1;"/>
<stop offset="0.7803" style="stop-color:rgb(54.509804%,83.137255%,94.117647%);stop-opacity:1;"/>
<stop offset="0.8796" style="stop-color:rgb(38.039216%,76.862745%,92.156863%);stop-opacity:1;"/>
<stop offset="0.9734" style="stop-color:rgb(19.215686%,69.803922%,89.803922%);stop-opacity:1;"/>
<stop offset="1" style="stop-color:rgb(13.333333%,67.45098%,89.019608%);stop-opacity:1;"/>
</linearGradient>
<linearGradient id="linear10" gradientUnits="userSpaceOnUse" x1="437.3724" y1="416.1742" x2="437.3724" y2="395.8824" >
<stop offset="0" style="stop-color:rgb(100%,100%,100%);stop-opacity:1;"/>
<stop offset="0.1911" style="stop-color:rgb(98.823529%,99.607843%,100%);stop-opacity:1;"/>
<stop offset="0.3311" style="stop-color:rgb(95.294118%,98.039216%,99.215686%);stop-opacity:1;"/>
<stop offset="0.4549" style="stop-color:rgb(89.019608%,95.686275%,98.431373%);stop-opacity:1;"/>
<stop offset="0.5692" style="stop-color:rgb(80%,92.54902%,97.647059%);stop-opacity:1;"/>
<stop offset="0.6772" style="stop-color:rgb(68.627451%,88.235294%,96.078431%);stop-opacity:1;"/>
<stop offset="0.7803" style="stop-color:rgb(54.509804%,83.137255%,94.117647%);stop-opacity:1;"/>
<stop offset="0.8796" style="stop-color:rgb(38.039216%,76.862745%,92.156863%);stop-opacity:1;"/>
<stop offset="0.9734" style="stop-color:rgb(19.215686%,69.803922%,89.803922%);stop-opacity:1;"/>
<stop offset="1" style="stop-color:rgb(13.333333%,67.45098%,89.019608%);stop-opacity:1;"/>
</linearGradient>
<linearGradient id="linear11" gradientUnits="userSpaceOnUse" x1="415.6665" y1="416.1742" x2="415.6665" y2="395.8824" >
<stop offset="0" style="stop-color:rgb(100%,100%,100%);stop-opacity:1;"/>
<stop offset="0.1911" style="stop-color:rgb(98.823529%,99.607843%,100%);stop-opacity:1;"/>
<stop offset="0.3311" style="stop-color:rgb(95.294118%,98.039216%,99.215686%);stop-opacity:1;"/>
<stop offset="0.4549" style="stop-color:rgb(89.019608%,95.686275%,98.431373%);stop-opacity:1;"/>
<stop offset="0.5692" style="stop-color:rgb(80%,92.54902%,97.647059%);stop-opacity:1;"/>
<stop offset="0.6772" style="stop-color:rgb(68.627451%,88.235294%,96.078431%);stop-opacity:1;"/>
<stop offset="0.7803" style="stop-color:rgb(54.509804%,83.137255%,94.117647%);stop-opacity:1;"/>
<stop offset="0.8796" style="stop-color:rgb(38.039216%,76.862745%,92.156863%);stop-opacity:1;"/>
<stop offset="0.9734" style="stop-color:rgb(19.215686%,69.803922%,89.803922%);stop-opacity:1;"/>
<stop offset="1" style="stop-color:rgb(13.333333%,67.45098%,89.019608%);stop-opacity:1;"/>
</linearGradient>
<linearGradient id="linear12" gradientUnits="userSpaceOnUse" x1="337.3325" y1="394.3188" x2="397.9616" y2="394.3188" >
<stop offset="0" style="stop-color:rgb(100%,100%,100%);stop-opacity:1;"/>
<stop offset="0.1911" style="stop-color:rgb(98.823529%,99.607843%,100%);stop-opacity:1;"/>
<stop offset="0.3311" style="stop-color:rgb(95.294118%,98.039216%,99.215686%);stop-opacity:1;"/>
<stop offset="0.4549" style="stop-color:rgb(89.019608%,95.686275%,98.431373%);stop-opacity:1;"/>
<stop offset="0.5692" style="stop-color:rgb(80%,92.54902%,97.647059%);stop-opacity:1;"/>
<stop offset="0.6772" style="stop-color:rgb(68.627451%,88.235294%,96.078431%);stop-opacity:1;"/>
<stop offset="0.7803" style="stop-color:rgb(54.509804%,83.137255%,94.117647%);stop-opacity:1;"/>
<stop offset="0.8796" style="stop-color:rgb(38.039216%,76.862745%,92.156863%);stop-opacity:1;"/>
<stop offset="0.9734" style="stop-color:rgb(19.215686%,69.803922%,89.803922%);stop-opacity:1;"/>
<stop offset="1" style="stop-color:rgb(13.333333%,67.45098%,89.019608%);stop-opacity:1;"/>
</linearGradient>
<linearGradient id="linear13" gradientUnits="userSpaceOnUse" x1="293.5164" y1="464.325" x2="293.5164" y2="441.9203" >
<stop offset="0" style="stop-color:rgb(44.705882%,9.019608%,12.941176%);stop-opacity:1;"/>
<stop offset="0.00882518" style="stop-color:rgb(46.27451%,11.764706%,15.686275%);stop-opacity:1;"/>
<stop offset="0.0736" style="stop-color:rgb(57.647059%,30.196078%,32.941176%);stop-opacity:1;"/>
<stop offset="0.1442" style="stop-color:rgb(67.843137%,46.666667%,49.019608%);stop-opacity:1;"/>
<stop offset="0.2189" style="stop-color:rgb(76.470588%,61.176471%,62.745098%);stop-opacity:1;"/>
<stop offset="0.2991" style="stop-color:rgb(83.921569%,73.333333%,74.509804%);stop-opacity:1;"/>
<stop offset="0.3863" style="stop-color:rgb(89.803922%,83.137255%,83.921569%);stop-opacity:1;"/>
<stop offset="0.4833" style="stop-color:rgb(94.509804%,90.588235%,90.980392%);stop-opacity:1;"/>
<stop offset="0.5955" style="stop-color:rgb(97.647059%,96.078431%,96.078431%);stop-opacity:1;"/>
<stop offset="0.7367" style="stop-color:rgb(99.607843%,99.215686%,99.215686%);stop-opacity:1;"/>
<stop offset="1" style="stop-color:rgb(100%,100%,100%);stop-opacity:1;"/>
</linearGradient>
<linearGradient id="linear14" gradientUnits="userSpaceOnUse" x1="317.1634" y1="464.325" x2="317.1634" y2="441.9203" >
<stop offset="0" style="stop-color:rgb(44.705882%,9.019608%,12.941176%);stop-opacity:1;"/>
<stop offset="0.00882518" style="stop-color:rgb(46.27451%,11.764706%,15.686275%);stop-opacity:1;"/>
<stop offset="0.0736" style="stop-color:rgb(57.647059%,30.196078%,32.941176%);stop-opacity:1;"/>
<stop offset="0.1442" style="stop-color:rgb(67.843137%,46.666667%,49.019608%);stop-opacity:1;"/>
<stop offset="0.2189" style="stop-color:rgb(76.470588%,61.176471%,62.745098%);stop-opacity:1;"/>
<stop offset="0.2991" style="stop-color:rgb(83.921569%,73.333333%,74.509804%);stop-opacity:1;"/>
<stop offset="0.3863" style="stop-color:rgb(89.803922%,83.137255%,83.921569%);stop-opacity:1;"/>
<stop offset="0.4833" style="stop-color:rgb(94.509804%,90.588235%,90.980392%);stop-opacity:1;"/>
<stop offset="0.5955" style="stop-color:rgb(97.647059%,96.078431%,96.078431%);stop-opacity:1;"/>
<stop offset="0.7367" style="stop-color:rgb(99.607843%,99.215686%,99.215686%);stop-opacity:1;"/>
<stop offset="1" style="stop-color:rgb(100%,100%,100%);stop-opacity:1;"/>
</linearGradient>
<linearGradient id="linear15" gradientUnits="userSpaceOnUse" x1="227.0588" y1="419.7224" x2="227.0588" y2="439.1593" >
<stop offset="0" style="stop-color:rgb(100%,100%,100%);stop-opacity:1;"/>
<stop offset="1" style="stop-color:rgb(0%,0%,0%);stop-opacity:1;"/>
</linearGradient>
<linearGradient id="linear16" gradientUnits="userSpaceOnUse" x1="158.2941" y1="442.446" x2="280.7647" y2="442.446" >
<stop offset="0" style="stop-color:rgb(100%,100%,100%);stop-opacity:1;"/>
<stop offset="1" style="stop-color:rgb(0%,0%,0%);stop-opacity:1;"/>
</linearGradient>
<linearGradient id="linear17" gradientUnits="userSpaceOnUse" x1="156.1765" y1="403.2206" x2="276.6324" y2="403.2206" >
<stop offset="0" style="stop-color:rgb(100%,100%,100%);stop-opacity:1;"/>
<stop offset="1" style="stop-color:rgb(0%,0%,0%);stop-opacity:1;"/>
</linearGradient>
<linearGradient id="linear18" gradientUnits="userSpaceOnUse" x1="156.1765" y1="423" x2="279.9412" y2="423" >
<stop offset="0" style="stop-color:rgb(100%,100%,100%);stop-opacity:1;"/>
<stop offset="1" style="stop-color:rgb(0%,0%,0%);stop-opacity:1;"/>
</linearGradient>
<linearGradient id="linear19" gradientUnits="userSpaceOnUse" x1="426.7422" y1="418.3824" x2="426.7422" y2="404.8529" >
<stop offset="0" style="stop-color:rgb(100%,100%,100%);stop-opacity:1;"/>
<stop offset="1" style="stop-color:rgb(0%,0%,0%);stop-opacity:1;"/>
</linearGradient>
<linearGradient id="linear20" gradientUnits="userSpaceOnUse" x1="174.8106" y1="393.4203" x2="174.8106" y2="451.5967" >
<stop offset="0" style="stop-color:rgb(100%,100%,100%);stop-opacity:1;"/>
<stop offset="1" style="stop-color:rgb(0%,0%,0%);stop-opacity:1;"/>
</linearGradient>
<linearGradient id="linear21" gradientUnits="userSpaceOnUse" x1="346.7093" y1="404.6738" x2="346.7093" y2="433.1609" >
<stop offset="0" style="stop-color:rgb(100%,100%,100%);stop-opacity:1;"/>
<stop offset="1" style="stop-color:rgb(0%,0%,0%);stop-opacity:1;"/>
</linearGradient>
<linearGradient id="linear22" gradientUnits="userSpaceOnUse" x1="305.4402" y1="404.8824" x2="305.4402" y2="393.8188" >
<stop offset="0" style="stop-color:rgb(100%,100%,100%);stop-opacity:1;"/>
<stop offset="1" style="stop-color:rgb(0%,0%,0%);stop-opacity:1;"/>
</linearGradient>
<linearGradient id="linear23" gradientUnits="userSpaceOnUse" x1="305.8206" y1="441.9203" x2="305.8206" y2="454.9546" >
<stop offset="0" style="stop-color:rgb(100%,100%,100%);stop-opacity:1;"/>
<stop offset="1" style="stop-color:rgb(0%,0%,0%);stop-opacity:1;"/>
</linearGradient>
<linearGradient id="linear24" gradientUnits="userSpaceOnUse" x1="327.6018" y1="441.9203" x2="447.606" y2="441.9203" >
<stop offset="0" style="stop-color:rgb(100%,100%,100%);stop-opacity:1;"/>
<stop offset="1" style="stop-color:rgb(0%,0%,0%);stop-opacity:1;"/>
</linearGradient>
<linearGradient id="linear25" gradientUnits="userSpaceOnUse" x1="258.7721" y1="419.7224" x2="258.7721" y2="409.1324" >
<stop offset="0" style="stop-color:rgb(100%,100%,100%);stop-opacity:1;"/>
<stop offset="1" style="stop-color:rgb(0%,0%,0%);stop-opacity:1;"/>
</linearGradient>
<linearGradient id="linear26" gradientUnits="userSpaceOnUse" x1="394.2941" y1="418.2007" x2="394.2941" y2="437.6377" >
<stop offset="0" style="stop-color:rgb(100%,100%,100%);stop-opacity:1;"/>
<stop offset="1" style="stop-color:rgb(0%,0%,0%);stop-opacity:1;"/>
</linearGradient>
<linearGradient id="linear27" gradientUnits="userSpaceOnUse" x1="375.0625" y1="406.5998" x2="385.6985" y2="406.5998" >
<stop offset="0" style="stop-color:rgb(100%,100%,100%);stop-opacity:1;"/>
<stop offset="1" style="stop-color:rgb(0%,0%,0%);stop-opacity:1;"/>
</linearGradient>
</defs>
<g id="surface1">
<path style="fill:none;stroke-width:1;stroke-linecap:butt;stroke-linejoin:miter;stroke:url(#linear0);stroke-miterlimit:10;" d="M 219.873653 422.283182 C 219.873653 447.072446 199.779443 467.189043 174.990734 467.189043 C 150.180088 467.189043 130.085879 447.072446 130.085879 422.283182 C 130.085879 397.493917 150.180088 377.399257 174.990734 377.399257 C 199.779443 377.399257 219.873653 397.493917 219.873653 422.283182 Z M 219.873653 422.283182 " transform="matrix(0.178067,0,0,0.178063,0,0.045071)"/>
<path style="fill:none;stroke-width:1;stroke-linecap:butt;stroke-linejoin:miter;stroke:url(#linear1);stroke-miterlimit:10;" d="M 458.678859 417.676327 C 458.678859 435.401748 444.288246 449.770746 426.563222 449.770746 C 408.838199 449.770746 394.469522 435.401748 394.469522 417.676327 C 394.469522 399.950906 408.838199 385.581908 426.563222 385.581908 C 444.288246 385.581908 458.678859 399.950906 458.678859 417.676327 Z M 458.678859 417.676327 " transform="matrix(0.178067,0,0,0.178063,0,0.045071)"/>
<path style="fill:none;stroke-width:1;stroke-linecap:butt;stroke-linejoin:miter;stroke:url(#linear2);stroke-miterlimit:10;" d="M 214.56492 422.283182 C 214.56492 444.154771 196.839897 461.880192 174.990734 461.880192 C 153.119634 461.880192 135.394611 444.154771 135.394611 422.283182 C 135.394611 400.433529 153.119634 382.708108 174.990734 382.708108 C 196.839897 382.708108 214.56492 400.433529 214.56492 422.283182 Z M 214.56492 422.283182 " transform="matrix(0.178067,0,0,0.178063,0,0.045071)"/>
<path style="fill:none;stroke-width:1;stroke-linecap:butt;stroke-linejoin:miter;stroke:url(#linear3);stroke-miterlimit:10;" d="M 214.762353 400.236093 L 275.395973 400.236093 " transform="matrix(0.178067,0,0,0.178063,0,0.045071)"/>
<path style="fill:none;stroke-width:1;stroke-linecap:butt;stroke-linejoin:miter;stroke:url(#linear4);stroke-miterlimit:10;" d="M 220.136896 446.655635 L 280.770516 446.655635 " transform="matrix(0.178067,0,0,0.178063,0,0.045071)"/>
<path style="fill:none;stroke-width:1;stroke-linecap:butt;stroke-linejoin:miter;stroke:url(#linear5);stroke-miterlimit:10;" d="M 327.60582 446.655635 L 440.405413 446.655635 " transform="matrix(0.178067,0,0,0.178063,0,0.045071)"/>
<path style="fill:none;stroke-width:1;stroke-linecap:butt;stroke-linejoin:miter;stroke:url(#linear6);stroke-miterlimit:10;" d="M 305.186297 385.077348 C 316.110879 385.077348 325.499876 393.940058 325.499876 404.864884 " transform="matrix(0.178067,0,0,0.178063,0,0.045071)"/>
<path style="fill:none;stroke-width:1;stroke-linecap:butt;stroke-linejoin:miter;stroke:url(#linear7);stroke-miterlimit:10;" d="M 284.521728 404.864884 C 284.521728 393.940058 294.239779 385.077348 305.186297 385.077348 " transform="matrix(0.178067,0,0,0.178063,0,0.045071)"/>
<path style="fill:none;stroke-width:1;stroke-linecap:butt;stroke-linejoin:miter;stroke:url(#linear8);stroke-miterlimit:10;" d="M 346.471563 396.067986 C 357.396144 396.067986 367.640681 404.930697 367.640681 415.855523 " transform="matrix(0.178067,0,0,0.178063,0,0.045071)"/>
<path style="fill:none;stroke-width:1;stroke-linecap:butt;stroke-linejoin:miter;stroke:url(#linear9);stroke-miterlimit:10;" d="M 325.236633 415.855523 C 325.236633 404.930697 335.546981 396.067986 346.471563 396.067986 " transform="matrix(0.178067,0,0,0.178063,0,0.045071)"/>
<path style="fill:none;stroke-width:1;stroke-linecap:butt;stroke-linejoin:miter;stroke:url(#linear10);stroke-miterlimit:10;" d="M 426.541285 396.37511 C 437.465867 396.37511 447.710404 405.23782 447.710404 416.162646 " transform="matrix(0.178067,0,0,0.178063,0,0.045071)"/>
<path style="fill:none;stroke-width:1;stroke-linecap:butt;stroke-linejoin:miter;stroke:url(#linear11);stroke-miterlimit:10;" d="M 405.306356 416.162646 C 405.306356 405.23782 415.616704 396.37511 426.541285 396.37511 " transform="matrix(0.178067,0,0,0.178063,0,0.045071)"/>
<path style="fill:none;stroke-width:1;stroke-linecap:butt;stroke-linejoin:miter;stroke:url(#linear12);stroke-miterlimit:10;" d="M 337.323871 394.312994 L 397.957491 394.312994 " transform="matrix(0.178067,0,0,0.178063,0,0.045071)"/>
<path style="fill:none;stroke-width:1;stroke-linecap:butt;stroke-linejoin:miter;stroke:url(#linear13);stroke-miterlimit:10;" d="M 305.186297 463.810683 C 293.077123 463.810683 282.349973 454.004665 282.349973 441.917156 " transform="matrix(0.178067,0,0,0.178063,0,0.045071)"/>
<path style="fill:none;stroke-width:1;stroke-linecap:butt;stroke-linejoin:miter;stroke:url(#linear14);stroke-miterlimit:10;" d="M 328.658791 441.917156 C 328.658791 454.026602 317.273535 463.810683 305.186297 463.810683 " transform="matrix(0.178067,0,0,0.178063,0,0.045071)"/>
<path style="fill:none;stroke-width:1;stroke-linecap:butt;stroke-linejoin:miter;stroke:url(#linear15);stroke-miterlimit:10;" d="M 227.068959 439.153044 L 227.068959 419.716505 " transform="matrix(0.178067,0,0,0.178063,0,0.045071)"/>
<path style="fill:none;stroke-width:1;stroke-linecap:butt;stroke-linejoin:miter;stroke:url(#linear16);stroke-miterlimit:10;" d="M 158.296745 442.443654 L 280.770516 442.443654 " transform="matrix(0.178067,0,0,0.178063,0,0.045071)"/>
<path style="fill:none;stroke-width:1;stroke-linecap:butt;stroke-linejoin:miter;stroke:url(#linear17);stroke-miterlimit:10;" d="M 156.190802 403.219579 L 276.62444 403.219579 " transform="matrix(0.178067,0,0,0.178063,0,0.045071)"/>
<path style="fill:none;stroke-width:1;stroke-linecap:butt;stroke-linejoin:miter;stroke:url(#linear18);stroke-miterlimit:10;" d="M 156.190802 423.007116 L 279.936913 423.007116 " transform="matrix(0.178067,0,0,0.178063,0,0.045071)"/>
<path style="fill:none;stroke-width:1;stroke-linecap:butt;stroke-linejoin:miter;stroke:url(#linear19);stroke-miterlimit:4;" d="M 439.747305 417.873764 C 439.659558 416.140709 439.242756 414.473466 438.496902 412.937848 C 437.72911 411.380293 436.741949 410.020174 435.557356 408.879429 C 434.350825 407.738684 432.990737 406.839251 431.455153 406.203066 C 429.91957 405.566881 428.362049 405.281695 426.760654 405.347507 C 425.071512 405.347507 423.448181 405.654631 421.934534 406.290815 C 420.39895 406.905063 419.060799 407.760621 417.876206 408.879429 C 416.691613 409.998236 415.748325 411.314481 415.002471 412.850099 C 414.278552 414.363779 413.861751 416.052959 413.752067 417.873764 Z M 439.747305 417.873764 " transform="matrix(0.178067,0,0,0.178063,0,0.045071)"/>
<path style="fill:none;stroke-width:1;stroke-linecap:butt;stroke-linejoin:miter;stroke:url(#linear20);stroke-miterlimit:10;" d="M 203.399033 422.502556 C 203.399033 438.297485 190.609814 451.108928 174.815239 451.108928 C 159.020663 451.108928 146.209508 438.297485 146.209508 422.502556 C 146.209508 406.729564 159.020663 393.918121 174.815239 393.918121 C 190.609814 393.918121 203.399033 406.729564 203.399033 422.502556 Z M 203.399033 422.502556 " transform="matrix(0.178067,0,0,0.178063,0,0.045071)"/>
<path style=" stroke:none;fill-rule:nonzero;fill:rgb(0%,0%,0%);fill-opacity:1;" d="M 36.550781 78.757812 C 36.339844 79.113281 36.0625 79.464844 35.71875 79.808594 C 35.375 80.152344 34.976562 80.460938 34.523438 80.738281 C 34.066406 81.015625 33.558594 81.238281 32.992188 81.402344 C 32.425781 81.570312 31.820312 81.652344 31.175781 81.652344 C 30.289062 81.652344 29.457031 81.496094 28.6875 81.179688 C 27.914062 80.863281 27.238281 80.421875 26.65625 79.855469 C 26.070312 79.289062 25.613281 78.617188 25.28125 77.832031 C 24.949219 77.050781 24.785156 76.199219 24.785156 75.277344 C 24.785156 74.359375 24.949219 73.503906 25.28125 72.722656 C 25.613281 71.941406 26.074219 71.265625 26.65625 70.699219 C 27.238281 70.132812 27.914062 69.691406 28.6875 69.378906 C 29.457031 69.0625 30.289062 68.902344 31.175781 68.902344 C 31.832031 68.902344 32.4375 68.992188 33 69.171875 C 33.558594 69.347656 34.066406 69.578125 34.523438 69.863281 C 34.976562 70.144531 35.375 70.464844 35.71875 70.820312 C 36.0625 71.175781 36.347656 71.523438 36.570312 71.867188 L 35.988281 71.867188 C 35.863281 71.703125 35.675781 71.476562 35.421875 71.199219 C 35.167969 70.917969 34.835938 70.644531 34.429688 70.371094 C 34.023438 70.09375 33.550781 69.855469 33.007812 69.648438 C 32.464844 69.441406 31.855469 69.339844 31.179688 69.339844 C 30.355469 69.339844 29.585938 69.488281 28.871094 69.789062 C 28.15625 70.089844 27.53125 70.503906 27 71.03125 C 26.464844 71.5625 26.046875 72.1875 25.742188 72.910156 C 25.4375 73.632812 25.285156 74.425781 25.285156 75.28125 C 25.285156 76.136719 25.4375 76.925781 25.742188 77.652344 C 26.046875 78.375 26.464844 79 27 79.527344 C 27.53125 80.058594 28.15625 80.472656 28.871094 80.773438 C 29.585938 81.074219 30.355469 81.222656 31.179688 81.222656 C 31.898438 81.222656 32.535156 81.117188 33.09375 80.902344 C 33.648438 80.691406 34.125 80.449219 34.523438 80.175781 C 34.921875 79.902344 35.246094 79.628906 35.488281 79.355469 C 35.734375 79.082031 35.898438 78.882812 35.988281 78.761719 L 36.550781 78.761719 Z M 36.550781 78.757812 "/>
<path style=" stroke:none;fill-rule:nonzero;fill:rgb(0%,0%,0%);fill-opacity:1;" d="M 33.292969 75.304688 C 33.292969 74.890625 33.367188 74.507812 33.515625 74.148438 C 33.660156 73.792969 33.863281 73.484375 34.125 73.222656 C 34.386719 72.960938 34.699219 72.753906 35.054688 72.609375 C 35.410156 72.464844 35.796875 72.390625 36.21875 72.390625 C 36.640625 72.390625 37.027344 72.460938 37.382812 72.609375 C 37.738281 72.753906 38.050781 72.960938 38.3125 73.222656 C 38.574219 73.484375 38.777344 73.792969 38.921875 74.148438 C 39.070312 74.507812 39.144531 74.890625 39.144531 75.304688 C 39.144531 75.722656 39.070312 76.109375 38.921875 76.460938 C 38.777344 76.816406 38.574219 77.125 38.3125 77.386719 C 38.050781 77.648438 37.738281 77.851562 37.382812 77.996094 C 37.027344 78.144531 36.640625 78.21875 36.21875 78.21875 C 35.796875 78.21875 35.414062 78.144531 35.054688 77.996094 C 34.699219 77.851562 34.386719 77.648438 34.125 77.386719 C 33.863281 77.125 33.660156 76.816406 33.515625 76.460938 C 33.367188 76.109375 33.292969 75.722656 33.292969 75.304688 Z M 33.585938 75.304688 C 33.585938 75.679688 33.652344 76.03125 33.785156 76.351562 C 33.921875 76.675781 34.105469 76.953125 34.34375 77.191406 C 34.578125 77.429688 34.855469 77.613281 35.175781 77.746094 C 35.496094 77.878906 35.839844 77.945312 36.21875 77.945312 C 36.597656 77.945312 36.945312 77.878906 37.261719 77.746094 C 37.582031 77.613281 37.859375 77.429688 38.097656 77.191406 C 38.332031 76.953125 38.519531 76.675781 38.652344 76.351562 C 38.785156 76.03125 38.851562 75.679688 38.851562 75.304688 C 38.851562 74.925781 38.785156 74.578125 38.652344 74.253906 C 38.519531 73.933594 38.332031 73.652344 38.097656 73.417969 C 37.859375 73.179688 37.578125 72.992188 37.261719 72.859375 C 36.945312 72.726562 36.597656 72.660156 36.21875 72.660156 C 35.839844 72.660156 35.496094 72.726562 35.175781 72.859375 C 34.855469 72.992188 34.578125 73.179688 34.34375 73.417969 C 34.105469 73.652344 33.917969 73.933594 33.785156 74.253906 C 33.652344 74.574219 33.585938 74.925781 33.585938 75.304688 Z M 33.585938 75.304688 "/>
<path style=" stroke:none;fill-rule:nonzero;fill:rgb(0%,0%,0%);fill-opacity:1;" d="M 39.960938 73.480469 L 39.984375 73.480469 C 40.113281 73.21875 40.269531 73.011719 40.453125 72.851562 C 40.636719 72.695312 40.820312 72.578125 41.003906 72.5 C 41.191406 72.417969 41.363281 72.367188 41.523438 72.347656 C 41.683594 72.324219 41.808594 72.3125 41.90625 72.3125 C 42.253906 72.3125 42.578125 72.375 42.875 72.492188 C 43.167969 72.613281 43.414062 72.792969 43.609375 73.023438 C 43.691406 73.109375 43.765625 73.210938 43.835938 73.328125 C 43.90625 73.445312 43.957031 73.570312 43.992188 73.699219 L 44.015625 73.699219 C 44.042969 73.621094 44.085938 73.519531 44.148438 73.398438 C 44.207031 73.28125 44.296875 73.15625 44.417969 73.023438 C 44.621094 72.796875 44.871094 72.621094 45.167969 72.5 C 45.460938 72.375 45.773438 72.3125 46.101562 72.3125 C 46.449219 72.3125 46.753906 72.367188 47.015625 72.46875 C 47.277344 72.570312 47.5 72.710938 47.683594 72.894531 C 47.921875 73.125 48.09375 73.421875 48.195312 73.789062 C 48.296875 74.152344 48.347656 74.554688 48.347656 75 L 48.347656 78.242188 L 48.042969 78.242188 L 48.042969 75 C 48.042969 74.601562 48 74.238281 47.910156 73.910156 C 47.824219 73.582031 47.671875 73.308594 47.453125 73.089844 C 47.136719 72.761719 46.6875 72.597656 46.097656 72.597656 C 45.84375 72.597656 45.578125 72.652344 45.296875 72.757812 C 45.015625 72.863281 44.785156 73.03125 44.601562 73.265625 C 44.507812 73.390625 44.429688 73.503906 44.371094 73.613281 C 44.3125 73.722656 44.269531 73.84375 44.234375 73.972656 C 44.203125 74.105469 44.179688 74.25 44.167969 74.414062 C 44.160156 74.578125 44.152344 74.773438 44.152344 75 L 44.152344 78.242188 L 43.847656 78.242188 L 43.847656 75 C 43.855469 74.773438 43.851562 74.574219 43.835938 74.40625 C 43.824219 74.234375 43.796875 74.082031 43.761719 73.949219 C 43.722656 73.820312 43.679688 73.699219 43.621094 73.597656 C 43.566406 73.492188 43.503906 73.386719 43.433594 73.285156 C 43.097656 72.847656 42.589844 72.617188 41.902344 72.597656 C 41.757812 72.589844 41.617188 72.601562 41.484375 72.632812 C 41.347656 72.667969 41.21875 72.710938 41.09375 72.765625 C 40.96875 72.820312 40.859375 72.890625 40.757812 72.96875 C 40.65625 73.046875 40.566406 73.136719 40.496094 73.230469 C 40.335938 73.410156 40.203125 73.636719 40.105469 73.90625 C 40.007812 74.175781 39.957031 74.523438 39.957031 74.945312 L 39.957031 78.242188 L 39.652344 78.242188 L 39.652344 72.453125 L 39.957031 72.453125 L 39.957031 73.480469 Z M 39.960938 73.480469 "/>
<path style=" stroke:none;fill-rule:nonzero;fill:rgb(0%,0%,0%);fill-opacity:1;" d="M 49.808594 69.367188 L 50.355469 69.367188 L 49.289062 71.929688 L 48.742188 71.929688 Z M 49.808594 69.367188 "/>
<path style=" stroke:none;fill-rule:nonzero;fill:rgb(0%,0%,0%);fill-opacity:1;" d="M 51.316406 78.730469 C 51.394531 79.320312 51.550781 79.804688 51.789062 80.179688 C 52.03125 80.554688 52.296875 80.851562 52.597656 81.058594 C 52.898438 81.273438 53.207031 81.417969 53.53125 81.492188 C 53.851562 81.570312 54.128906 81.609375 54.363281 81.609375 C 54.75 81.609375 55.132812 81.542969 55.5 81.402344 C 55.875 81.261719 56.203125 81.066406 56.492188 80.8125 C 56.78125 80.554688 57.011719 80.246094 57.191406 79.886719 C 57.371094 79.523438 57.457031 79.121094 57.457031 78.675781 C 57.457031 78.109375 57.351562 77.644531 57.132812 77.285156 C 56.917969 76.921875 56.648438 76.632812 56.328125 76.417969 C 56.003906 76.199219 55.664062 76.035156 55.304688 75.917969 C 54.941406 75.800781 54.613281 75.703125 54.3125 75.625 C 54.046875 75.558594 53.726562 75.464844 53.355469 75.351562 C 52.984375 75.234375 52.628906 75.0625 52.292969 74.839844 C 51.953125 74.617188 51.667969 74.320312 51.433594 73.949219 C 51.203125 73.578125 51.085938 73.101562 51.085938 72.523438 C 51.074219 72.011719 51.160156 71.558594 51.335938 71.15625 C 51.511719 70.753906 51.757812 70.421875 52.066406 70.148438 C 52.375 69.875 52.738281 69.667969 53.148438 69.523438 C 53.558594 69.378906 53.988281 69.304688 54.433594 69.304688 C 54.796875 69.304688 55.15625 69.359375 55.503906 69.464844 C 55.855469 69.574219 56.171875 69.742188 56.464844 69.972656 C 56.75 70.207031 57 70.5 57.203125 70.863281 C 57.410156 71.222656 57.546875 71.652344 57.613281 72.152344 L 57.113281 72.152344 C 57.070312 71.910156 56.992188 71.644531 56.890625 71.363281 C 56.785156 71.078125 56.628906 70.820312 56.429688 70.582031 C 56.230469 70.34375 55.96875 70.144531 55.640625 69.980469 C 55.3125 69.820312 54.898438 69.738281 54.402344 69.738281 C 54.011719 69.738281 53.644531 69.804688 53.300781 69.929688 C 52.960938 70.058594 52.65625 70.238281 52.402344 70.472656 C 52.148438 70.707031 51.949219 70.988281 51.804688 71.320312 C 51.660156 71.65625 51.585938 72.023438 51.585938 72.421875 C 51.585938 72.914062 51.675781 73.316406 51.859375 73.632812 C 52.042969 73.949219 52.289062 74.210938 52.601562 74.425781 C 52.910156 74.636719 53.265625 74.804688 53.664062 74.929688 C 54.066406 75.058594 54.476562 75.179688 54.898438 75.289062 C 54.996094 75.324219 55.140625 75.363281 55.332031 75.40625 C 55.519531 75.453125 55.726562 75.523438 55.957031 75.625 C 56.183594 75.722656 56.417969 75.847656 56.65625 76 C 56.894531 76.148438 57.109375 76.339844 57.304688 76.574219 C 57.5 76.808594 57.660156 77.089844 57.78125 77.425781 C 57.902344 77.757812 57.960938 78.148438 57.960938 78.589844 C 57.960938 79.101562 57.863281 79.566406 57.664062 79.988281 C 57.464844 80.414062 57.195312 80.777344 56.863281 81.082031 C 56.53125 81.386719 56.148438 81.625 55.714844 81.789062 C 55.28125 81.957031 54.839844 82.039062 54.382812 82.039062 C 54.015625 82.039062 53.632812 81.976562 53.226562 81.855469 C 52.820312 81.734375 52.449219 81.535156 52.113281 81.265625 C 51.773438 80.996094 51.484375 80.652344 51.246094 80.234375 C 51.007812 79.816406 50.863281 79.316406 50.820312 78.726562 L 51.316406 78.726562 Z M 51.316406 78.730469 "/>
<path style=" stroke:none;fill-rule:nonzero;fill:rgb(0%,0%,0%);fill-opacity:1;" d="M 58.304688 74.640625 C 58.304688 74.15625 58.390625 73.703125 58.5625 73.285156 C 58.734375 72.867188 58.972656 72.503906 59.28125 72.199219 C 59.589844 71.890625 59.953125 71.652344 60.371094 71.480469 C 60.789062 71.304688 61.246094 71.21875 61.734375 71.21875 C 62.226562 71.21875 62.683594 71.304688 63.101562 71.480469 C 63.519531 71.652344 63.882812 71.890625 64.191406 72.199219 C 64.496094 72.507812 64.738281 72.871094 64.910156 73.285156 C 65.082031 73.703125 65.167969 74.15625 65.167969 74.640625 C 65.167969 75.132812 65.082031 75.585938 64.910156 75.996094 C 64.738281 76.414062 64.496094 76.773438 64.191406 77.082031 C 63.882812 77.390625 63.519531 77.628906 63.101562 77.800781 C 62.683594 77.972656 62.226562 78.058594 61.734375 78.058594 C 61.246094 78.058594 60.789062 77.972656 60.371094 77.800781 C 59.953125 77.628906 59.589844 77.390625 59.28125 77.082031 C 58.972656 76.773438 58.734375 76.414062 58.5625 75.996094 C 58.390625 75.585938 58.304688 75.132812 58.304688 74.640625 Z M 58.648438 74.640625 C 58.648438 75.082031 58.726562 75.492188 58.882812 75.871094 C 59.039062 76.246094 59.257812 76.574219 59.535156 76.855469 C 59.816406 77.132812 60.140625 77.351562 60.511719 77.507812 C 60.886719 77.664062 61.292969 77.738281 61.734375 77.738281 C 62.179688 77.738281 62.585938 77.660156 62.960938 77.507812 C 63.332031 77.351562 63.660156 77.132812 63.9375 76.855469 C 64.214844 76.574219 64.433594 76.246094 64.589844 75.871094 C 64.742188 75.492188 64.820312 75.082031 64.820312 74.640625 C 64.820312 74.195312 64.742188 73.785156 64.589844 73.410156 C 64.433594 73.03125 64.214844 72.703125 63.9375 72.425781 C 63.65625 72.144531 63.332031 71.925781 62.960938 71.773438 C 62.585938 71.617188 62.175781 71.539062 61.734375 71.539062 C 61.292969 71.539062 60.886719 71.617188 60.511719 71.773438 C 60.140625 71.929688 59.8125 72.148438 59.535156 72.425781 C 59.253906 72.703125 59.039062 73.03125 58.882812 73.410156 C 58.726562 73.785156 58.648438 74.195312 58.648438 74.640625 Z M 58.648438 74.640625 "/>
<path style=" stroke:none;fill-rule:nonzero;fill:rgb(0%,0%,0%);fill-opacity:1;" d="M 66.355469 72.570312 L 66.378906 72.570312 C 66.53125 72.265625 66.707031 72.023438 66.910156 71.84375 C 67.113281 71.664062 67.320312 71.53125 67.539062 71.441406 C 67.753906 71.347656 67.964844 71.289062 68.164062 71.265625 C 68.367188 71.238281 68.542969 71.222656 68.683594 71.214844 L 68.683594 71.539062 C 68.484375 71.546875 68.265625 71.574219 68.035156 71.613281 C 67.804688 71.65625 67.539062 71.785156 67.238281 72 C 67.039062 72.175781 66.882812 72.355469 66.765625 72.542969 C 66.652344 72.730469 66.5625 72.925781 66.5 73.125 C 66.4375 73.324219 66.398438 73.53125 66.382812 73.742188 C 66.367188 73.953125 66.355469 74.171875 66.355469 74.398438 L 66.355469 77.976562 L 66.007812 77.976562 L 66.007812 71.378906 L 66.355469 71.378906 Z M 66.355469 72.570312 "/>
<path style=" stroke:none;fill-rule:nonzero;fill:rgb(0%,0%,0%);fill-opacity:1;" d="M 70.796875 68.527344 L 71.125 68.527344 L 71.125 71.207031 L 72.722656 71.207031 L 72.722656 71.539062 L 71.125 71.539062 L 71.125 77.972656 L 70.796875 77.972656 L 70.796875 71.539062 L 69.417969 71.539062 L 69.417969 71.207031 L 70.796875 71.207031 Z M 70.796875 68.527344 "/>
<path style=" stroke:none;fill-rule:nonzero;fill:rgb(0%,0%,0%);fill-opacity:1;" d="M 73.070312 74.675781 C 73.078125 75.210938 73.175781 75.667969 73.363281 76.054688 C 73.550781 76.441406 73.789062 76.757812 74.074219 77.007812 C 74.355469 77.257812 74.667969 77.441406 75.003906 77.5625 C 75.34375 77.679688 75.664062 77.738281 75.960938 77.738281 C 76.53125 77.738281 77.042969 77.589844 77.503906 77.296875 C 77.96875 77 78.320312 76.574219 78.566406 76.015625 L 78.921875 76.015625 C 78.785156 76.359375 78.609375 76.664062 78.390625 76.921875 C 78.175781 77.179688 77.941406 77.390625 77.683594 77.558594 C 77.425781 77.730469 77.148438 77.851562 76.855469 77.933594 C 76.558594 78.015625 76.257812 78.058594 75.949219 78.058594 C 75.480469 78.058594 75.050781 77.972656 74.660156 77.800781 C 74.265625 77.628906 73.929688 77.386719 73.644531 77.082031 C 73.359375 76.773438 73.136719 76.410156 72.976562 75.992188 C 72.816406 75.574219 72.734375 75.121094 72.734375 74.636719 L 72.734375 74.648438 C 72.734375 74.15625 72.816406 73.703125 72.984375 73.285156 C 73.148438 72.867188 73.375 72.503906 73.660156 72.195312 C 73.949219 71.886719 74.289062 71.644531 74.683594 71.476562 C 75.082031 71.300781 75.503906 71.21875 75.957031 71.21875 C 76.363281 71.21875 76.753906 71.292969 77.128906 71.445312 C 77.503906 71.597656 77.84375 71.8125 78.136719 72.097656 C 78.429688 72.378906 78.667969 72.726562 78.851562 73.132812 C 79.03125 73.539062 79.132812 73.992188 79.15625 74.492188 L 79.144531 74.675781 Z M 78.835938 74.355469 C 78.816406 73.960938 78.726562 73.589844 78.558594 73.242188 C 78.390625 72.894531 78.171875 72.589844 77.90625 72.328125 C 77.640625 72.070312 77.339844 71.871094 77 71.726562 C 76.664062 71.582031 76.316406 71.519531 75.964844 71.535156 C 75.585938 71.535156 75.230469 71.605469 74.890625 71.746094 C 74.554688 71.886719 74.253906 72.082031 73.992188 72.328125 C 73.730469 72.582031 73.519531 72.878906 73.359375 73.222656 C 73.195312 73.566406 73.105469 73.945312 73.082031 74.355469 Z M 78.835938 74.355469 "/>
<path style="fill:none;stroke-width:0.75;stroke-linecap:butt;stroke-linejoin:miter;stroke:url(#linear21);stroke-miterlimit:10;" d="M 360.576996 418.926759 C 360.576996 426.582912 354.36885 432.791197 346.712869 432.791197 C 339.056887 432.791197 332.848741 426.582912 332.848741 418.926759 C 332.848741 411.270606 339.056887 405.040384 346.712869 405.040384 C 354.36885 405.040384 360.576996 411.270606 360.576996 418.926759 Z M 360.576996 418.926759 " transform="matrix(0.178067,0,0,0.178063,0,0.045071)"/>
<path style="fill:none;stroke-width:1;stroke-linecap:butt;stroke-linejoin:miter;stroke:url(#linear22);stroke-miterlimit:10;" d="M 293.844915 404.886822 C 293.844915 398.4811 299.043962 394.312994 305.44954 394.312994 C 311.833181 394.312994 317.032229 398.4811 317.032229 404.886822 " transform="matrix(0.178067,0,0,0.178063,0,0.045071)"/>
<path style="fill:none;stroke-width:1;stroke-linecap:butt;stroke-linejoin:miter;stroke:url(#linear23);stroke-miterlimit:10;" d="M 318.348443 441.917156 C 318.348443 448.849375 312.732594 454.443413 305.822468 454.443413 C 298.890404 454.443413 293.296492 448.849375 293.296492 441.917156 " transform="matrix(0.178067,0,0,0.178063,0,0.045071)"/>
<path style="fill:none;stroke-width:1;stroke-linecap:butt;stroke-linejoin:miter;stroke:url(#linear24);stroke-miterlimit:10;" d="M 327.60582 441.917156 L 447.600719 441.917156 " transform="matrix(0.178067,0,0,0.178063,0,0.045071)"/>
<path style="fill:none;stroke-width:1;stroke-linecap:butt;stroke-linejoin:miter;stroke:url(#linear25);stroke-miterlimit:10;" d="M 249.751725 419.716505 C 249.751725 414.407654 253.744242 409.625301 259.052975 409.625301 C 264.383644 409.625301 267.805802 414.407654 267.805802 419.716505 " transform="matrix(0.178067,0,0,0.178063,0,0.045071)"/>
<path style="fill:none;stroke-width:1;stroke-linecap:butt;stroke-linejoin:miter;stroke:url(#linear26);stroke-miterlimit:10;" d="M 394.294027 437.639363 L 394.294027 418.202825 " transform="matrix(0.178067,0,0,0.178063,0,0.045071)"/>
<path style="fill:none;stroke-width:0.5;stroke-linecap:butt;stroke-linejoin:miter;stroke:url(#linear27);stroke-miterlimit:4;" d="M 385.453452 401.398775 L 385.453452 403.987388 C 384.510165 404.009326 383.632689 404.14095 382.535843 404.360324 C 381.460935 404.557761 380.210531 405.172008 378.784631 406.246941 C 377.841344 407.080562 377.117426 407.979995 376.569004 408.879429 C 376.020581 409.8008 375.581843 410.744108 375.296663 411.731291 " transform="matrix(0.178067,0,0,0.178063,0,0.045071)"/>
</g>
</svg>
