<svg xmlns="http://www.w3.org/2000/svg" xmlns:xlink="http://www.w3.org/1999/xlink" viewBox="0 0 342.47 101.64"><defs><style>.cls-1{fill:#fff;}.cls-10,.cls-11,.cls-12,.cls-13,.cls-14,.cls-15,.cls-16,.cls-17,.cls-18,.cls-19,.cls-2,.cls-20,.cls-21,.cls-22,.cls-24,.cls-25,.cls-26,.cls-27,.cls-28,.cls-29,.cls-3,.cls-30,.cls-4,.cls-5,.cls-6,.cls-7,.cls-8,.cls-9{fill:none;}.cls-10,.cls-11,.cls-12,.cls-13,.cls-14,.cls-15,.cls-16,.cls-17,.cls-18,.cls-19,.cls-2,.cls-20,.cls-22,.cls-24,.cls-25,.cls-26,.cls-27,.cls-28,.cls-29,.cls-3,.cls-4,.cls-5,.cls-6,.cls-7,.cls-8,.cls-9{stroke-miterlimit:10;}.cls-2{stroke:url(#linear-gradient);}.cls-3{stroke:url(#linear-gradient-2);}.cls-4{stroke:url(#linear-gradient-3);}.cls-5{stroke:url(#linear-gradient-4);}.cls-6{stroke:url(#linear-gradient-5);}.cls-7{stroke:url(#linear-gradient-6);}.cls-8{stroke:url(#linear-gradient-7);}.cls-9{stroke:url(#linear-gradient-8);}.cls-10{stroke:url(#linear-gradient-9);}.cls-11{stroke:url(#linear-gradient-10);}.cls-12{stroke:url(#linear-gradient-11);}.cls-13{stroke:url(#linear-gradient-12);}.cls-14{stroke:url(#linear-gradient-13);}.cls-15{stroke:url(#linear-gradient-14);}.cls-16{stroke:url(#linear-gradient-15);}.cls-17{stroke:url(#linear-gradient-16);}.cls-18{stroke:url(#linear-gradient-17);}.cls-19{stroke:url(#linear-gradient-18);}.cls-20{stroke:url(#linear-gradient-19);}.cls-21{stroke:url(#linear-gradient-20);}.cls-22{stroke:url(#linear-gradient-21);}.cls-23{fill:#231f20;}.cls-24{stroke-width:0.75px;stroke:url(#linear-gradient-22);}.cls-25{stroke:url(#linear-gradient-23);}.cls-26{stroke:url(#linear-gradient-24);}.cls-27{stroke:url(#linear-gradient-25);}.cls-28{stroke:url(#linear-gradient-26);}.cls-29{stroke:url(#linear-gradient-27);}.cls-30{stroke-width:0.5px;stroke:url(#linear-gradient-28);}</style><linearGradient id="linear-gradient" x1="96.38" y1="50.82" x2="5.6" y2="50.82" gradientUnits="userSpaceOnUse"><stop offset="0" stop-color="#fff"/><stop offset="1" stop-color="#231f20"/></linearGradient><linearGradient id="linear-gradient-2" x1="68.03" y1="390.21" x2="2.83" y2="390.21" gradientTransform="translate(338.01 436.41) rotate(180)" xlink:href="#linear-gradient"/><linearGradient id="linear-gradient-3" x1="50.99" y1="90.9" x2="50.99" y2="10.73" gradientUnits="userSpaceOnUse"><stop offset="0" stop-color="#721721"/><stop offset="0" stop-color="#761e28"/><stop offset="0.04" stop-color="#934d54"/><stop offset="0.08" stop-color="#ad777d"/><stop offset="0.12" stop-color="#c39ca0"/><stop offset="0.16" stop-color="#d6bbbe"/><stop offset="0.21" stop-color="#e5d4d6"/><stop offset="0.26" stop-color="#f1e7e8"/><stop offset="0.32" stop-color="#f9f5f5"/><stop offset="0.4" stop-color="#fefdfd"/><stop offset="0.54" stop-color="#fff"/><stop offset="0.63" stop-color="#fcfeff"/><stop offset="0.69" stop-color="#f3fafd"/><stop offset="0.75" stop-color="#e3f4fb"/><stop offset="0.8" stop-color="#ccecf9"/><stop offset="0.85" stop-color="#afe1f5"/><stop offset="0.9" stop-color="#8bd4f0"/><stop offset="0.94" stop-color="#61c4eb"/><stop offset="0.99" stop-color="#31b2e5"/><stop offset="1" stop-color="#22ace3"/></linearGradient><linearGradient id="linear-gradient-4" x1="90.77" y1="28.77" x2="151.4" y2="28.77" gradientUnits="userSpaceOnUse"><stop offset="0" stop-color="#fff"/><stop offset="0.19" stop-color="#fcfeff"/><stop offset="0.33" stop-color="#f3fafd"/><stop offset="0.45" stop-color="#e3f4fb"/><stop offset="0.57" stop-color="#ccecf9"/><stop offset="0.68" stop-color="#afe1f5"/><stop offset="0.78" stop-color="#8bd4f0"/><stop offset="0.88" stop-color="#61c4eb"/><stop offset="0.97" stop-color="#31b2e5"/><stop offset="1" stop-color="#22ace3"/></linearGradient><linearGradient id="linear-gradient-5" x1="96.14" y1="75.18" x2="156.77" y2="75.18" gradientUnits="userSpaceOnUse"><stop offset="0" stop-color="#fff"/><stop offset="1" stop-color="#721721"/></linearGradient><linearGradient id="linear-gradient-6" x1="203.61" y1="75.18" x2="316.42" y2="75.18" xlink:href="#linear-gradient-5"/><linearGradient id="linear-gradient-7" x1="315.59" y1="404.86" x2="315.59" y2="384.57" xlink:href="#linear-gradient-4"/><linearGradient id="linear-gradient-8" x1="294.6" y1="404.86" x2="294.6" y2="384.57" xlink:href="#linear-gradient-4"/><linearGradient id="linear-gradient-9" x1="357.31" y1="415.85" x2="357.31" y2="395.56" xlink:href="#linear-gradient-4"/><linearGradient id="linear-gradient-10" x1="335.6" y1="415.85" x2="335.6" y2="395.56" xlink:href="#linear-gradient-4"/><linearGradient id="linear-gradient-11" x1="437.37" y1="416.17" x2="437.37" y2="395.88" xlink:href="#linear-gradient-4"/><linearGradient id="linear-gradient-12" x1="415.67" y1="416.17" x2="415.67" y2="395.88" xlink:href="#linear-gradient-4"/><linearGradient id="linear-gradient-13" x1="213.34" y1="22.85" x2="273.97" y2="22.85" xlink:href="#linear-gradient-4"/><linearGradient id="linear-gradient-14" x1="293.52" y1="464.32" x2="293.52" y2="441.92" gradientUnits="userSpaceOnUse"><stop offset="0" stop-color="#721721"/><stop offset="0.01" stop-color="#761e28"/><stop offset="0.07" stop-color="#934d54"/><stop offset="0.14" stop-color="#ad777d"/><stop offset="0.22" stop-color="#c39ca0"/><stop offset="0.3" stop-color="#d6bbbe"/><stop offset="0.39" stop-color="#e5d4d6"/><stop offset="0.48" stop-color="#f1e7e8"/><stop offset="0.6" stop-color="#f9f5f5"/><stop offset="0.74" stop-color="#fefdfd"/><stop offset="1" stop-color="#fff"/></linearGradient><linearGradient id="linear-gradient-15" x1="317.16" y1="464.32" x2="317.16" y2="441.92" xlink:href="#linear-gradient-14"/><linearGradient id="linear-gradient-16" x1="103.07" y1="48.25" x2="103.07" y2="67.69" gradientUnits="userSpaceOnUse"><stop offset="0" stop-color="#fff"/><stop offset="1"/></linearGradient><linearGradient id="linear-gradient-17" x1="34.3" y1="70.98" x2="156.77" y2="70.98" xlink:href="#linear-gradient-16"/><linearGradient id="linear-gradient-18" x1="32.18" y1="31.75" x2="152.64" y2="31.75" xlink:href="#linear-gradient-16"/><linearGradient id="linear-gradient-19" x1="32.18" y1="51.53" x2="155.95" y2="51.53" xlink:href="#linear-gradient-16"/><linearGradient id="linear-gradient-20" x1="426.74" y1="418.38" x2="426.74" y2="404.85" xlink:href="#linear-gradient-16"/><linearGradient id="linear-gradient-21" x1="50.82" y1="21.95" x2="50.82" y2="80.13" xlink:href="#linear-gradient-16"/><linearGradient id="linear-gradient-22" x1="222.72" y1="33.2" x2="222.72" y2="61.69" xlink:href="#linear-gradient-16"/><linearGradient id="linear-gradient-23" x1="305.44" y1="404.88" x2="305.44" y2="393.82" xlink:href="#linear-gradient-16"/><linearGradient id="linear-gradient-24" x1="305.82" y1="441.92" x2="305.82" y2="454.95" xlink:href="#linear-gradient-16"/><linearGradient id="linear-gradient-25" x1="203.61" y1="70.45" x2="323.61" y2="70.45" xlink:href="#linear-gradient-16"/><linearGradient id="linear-gradient-26" x1="258.77" y1="419.72" x2="258.77" y2="409.13" xlink:href="#linear-gradient-16"/><linearGradient id="linear-gradient-27" x1="270.3" y1="46.73" x2="270.3" y2="66.17" xlink:href="#linear-gradient-16"/><linearGradient id="linear-gradient-28" x1="375.06" y1="406.6" x2="385.7" y2="406.6" xlink:href="#linear-gradient-16"/></defs><g id="Layer_4" data-name="Layer 4"><circle class="cls-1" cx="50.82" cy="50.82" r="50.82"/><circle class="cls-1" cx="302.51" cy="46.21" r="39.96"/><circle class="cls-1" cx="180.74" cy="33.39" r="25.22"/><circle class="cls-1" cx="180.74" cy="71.34" r="25.22"/><rect class="cls-1" x="51.95" y="11.23" width="250.81" height="70.17"/></g><g id="Layer_3" data-name="Layer 3"><circle class="cls-2" cx="50.99" cy="50.82" r="44.89"/><circle class="cls-3" cx="302.58" cy="46.21" r="32.1"/></g><g id="Layer_2" data-name="Layer 2"><circle class="cls-4" cx="50.99" cy="50.82" r="39.58"/><line class="cls-5" x1="90.77" y1="28.77" x2="151.4" y2="28.77"/><line class="cls-6" x1="96.14" y1="75.18" x2="156.77" y2="75.18"/><line class="cls-7" x1="203.61" y1="75.18" x2="316.42" y2="75.18"/><path class="cls-8" d="M305.18,385.07c10.93,0,20.31,8.86,20.31,19.79" transform="translate(-123.99 -371.47)"/><path class="cls-9" d="M284.53,404.86c0-10.93,9.72-19.79,20.65-19.79" transform="translate(-123.99 -371.47)"/><path class="cls-10" d="M346.47,396.06c10.93,0,21.18,8.86,21.18,19.79" transform="translate(-123.99 -371.47)"/><path class="cls-11" d="M325.24,415.85c0-10.93,10.3-19.79,21.23-19.79" transform="translate(-123.99 -371.47)"/><path class="cls-12" d="M426.54,396.38c10.93,0,21.17,8.86,21.17,19.79" transform="translate(-123.99 -371.47)"/><path class="cls-13" d="M405.3,416.17c0-10.93,10.31-19.79,21.24-19.79" transform="translate(-123.99 -371.47)"/><line class="cls-14" x1="213.34" y1="22.85" x2="273.97" y2="22.85"/><path class="cls-15" d="M305.18,463.82c-12.1,0-22.83-9.8-22.83-21.9" transform="translate(-123.99 -371.47)"/><path class="cls-16" d="M328.65,441.92c0,12.1-11.37,21.9-23.47,21.9" transform="translate(-123.99 -371.47)"/></g><g id="Layer_1" data-name="Layer 1"><line class="cls-17" x1="103.07" y1="67.69" x2="103.07" y2="48.25"/><line class="cls-18" x1="34.3" y1="70.98" x2="156.77" y2="70.98"/><line class="cls-19" x1="32.18" y1="31.75" x2="152.64" y2="31.75"/><line class="cls-20" x1="32.18" y1="51.53" x2="155.95" y2="51.53"/><path class="cls-21" d="M439.74,417.88a12.15,12.15,0,0,0-1.25-4.94,14.63,14.63,0,0,0-2.94-4.05,13.23,13.23,0,0,0-4.09-2.68,10.78,10.78,0,0,0-4.69-.85,12.75,12.75,0,0,0-4.84.93,13,13,0,0,0-4.06,2.6,13.17,13.17,0,0,0-2.87,4,13.65,13.65,0,0,0-1.25,5Z" transform="translate(-123.99 -371.47)"/><circle class="cls-22" cx="50.82" cy="51.04" r="28.59"/><path class="cls-23" d="M205.27,442.05a30.65,30.65,0,0,1-4.68,5.89,36,36,0,0,1-25.52,10.37,36.35,36.35,0,0,1-14-2.66,35.5,35.5,0,0,1-11.41-7.43A34.53,34.53,0,0,1,142,436.86a38,38,0,0,1,0-28.7,34.42,34.42,0,0,1,7.71-11.36,35.33,35.33,0,0,1,11.41-7.43,36.36,36.36,0,0,1,14-2.67,33.66,33.66,0,0,1,10.24,1.5,37.75,37.75,0,0,1,8.55,3.88,35.14,35.14,0,0,1,6.73,5.37,39.53,39.53,0,0,1,4.77,5.89h-3.27q-1-1.41-3.18-3.76a31.16,31.16,0,0,0-5.56-4.66,39.32,39.32,0,0,0-8-4,28.75,28.75,0,0,0-10.28-1.75,33.09,33.09,0,0,0-12.95,2.54,32.26,32.26,0,0,0-17.57,17.53,35.75,35.75,0,0,0,0,26.62,32.32,32.32,0,0,0,7.06,10.55,32.74,32.74,0,0,0,10.51,7,33.08,33.08,0,0,0,12.95,2.53,30,30,0,0,0,10.75-1.78,38.67,38.67,0,0,0,8-4.1,29.56,29.56,0,0,0,5.42-4.61q2.06-2.31,2.81-3.34Z" transform="translate(-123.99 -371.47)"/><path class="cls-23" d="M187,422.65a16.73,16.73,0,0,1,1.24-6.48,15.72,15.72,0,0,1,3.44-5.21,15.91,15.91,0,0,1,5.21-3.45,18,18,0,0,1,13.07,0,15.8,15.8,0,0,1,5.21,3.45,15.6,15.6,0,0,1,3.45,5.21,17.6,17.6,0,0,1,0,13,15.76,15.76,0,0,1-8.66,8.63,18,18,0,0,1-13.07,0,15.7,15.7,0,0,1-8.65-8.63A16.66,16.66,0,0,1,187,422.65Zm1.65,0a15.13,15.13,0,0,0,1.12,5.88,14,14,0,0,0,3.12,4.71,14.3,14.3,0,0,0,4.68,3.13,16,16,0,0,0,11.72,0,14.51,14.51,0,0,0,4.68-3.13,14.35,14.35,0,0,0,3.12-4.71,16,16,0,0,0,0-11.77,14.27,14.27,0,0,0-7.8-7.83,15.89,15.89,0,0,0-11.72,0,14.27,14.27,0,0,0-7.8,7.83A15.18,15.18,0,0,0,188.62,422.65Z" transform="translate(-123.99 -371.47)"/><path class="cls-23" d="M224.42,412.42h.12a11,11,0,0,1,2.64-3.53,12.14,12.14,0,0,1,3.09-2,11.28,11.28,0,0,1,2.92-.86,16.93,16.93,0,0,1,2.14-.18,14.34,14.34,0,0,1,5.43,1,10.48,10.48,0,0,1,4.14,3,10.62,10.62,0,0,1,1.26,1.72,8.77,8.77,0,0,1,.89,2.09h.12c.16-.45.41-1,.73-1.69a8.86,8.86,0,0,1,1.54-2.12,11.71,11.71,0,0,1,4.2-2.94,13.5,13.5,0,0,1,5.24-1,14,14,0,0,1,5.15.86,10.72,10.72,0,0,1,3.75,2.39,10.91,10.91,0,0,1,2.88,5,25.25,25.25,0,0,1,.86,6.8v18.22H269.8V420.94a23.84,23.84,0,0,0-.74-6.13,10.07,10.07,0,0,0-2.57-4.6q-2.64-2.76-7.61-2.76a12.8,12.8,0,0,0-4.5.89,8.78,8.78,0,0,0-3.9,2.85,14.94,14.94,0,0,0-1.29,2,8.81,8.81,0,0,0-.76,2,13.51,13.51,0,0,0-.37,2.48c-.06.92-.09,2-.09,3.28v18.22h-1.72V420.94a29.56,29.56,0,0,0-.06-3.34,14.1,14.1,0,0,0-.43-2.54,10.67,10.67,0,0,0-.77-2,13.37,13.37,0,0,0-1.07-1.74q-2.82-3.69-8.59-3.87a8,8,0,0,0-2.36.22,13.29,13.29,0,0,0-2.18.73,9.3,9.3,0,0,0-1.9,1.14,8.52,8.52,0,0,0-1.47,1.47,12,12,0,0,0-2.18,3.8,17.35,17.35,0,0,0-.82,5.83v18.52H222.7V406.65h1.72Z" transform="translate(-123.99 -371.47)"/><path class="cls-23" d="M279.71,389.31h3.09l-6,14.4h-3.09Z" transform="translate(-123.99 -371.47)"/><path class="cls-23" d="M288.19,441.9a20.07,20.07,0,0,0,2.67,8.14,17.07,17.07,0,0,0,4.53,4.95,15.07,15.07,0,0,0,5.24,2.43,20.12,20.12,0,0,0,4.67.66,18.11,18.11,0,0,0,6.4-1.17,17.64,17.64,0,0,0,5.57-3.33,16.62,16.62,0,0,0,3.92-5.19,15.05,15.05,0,0,0-4.86-19.47,22.54,22.54,0,0,0-5.75-2.81c-2-.66-3.88-1.2-5.56-1.64q-2.25-.57-5.38-1.54a24,24,0,0,1-6-2.86,16.14,16.14,0,0,1-4.81-5,14.84,14.84,0,0,1-2-8,17.79,17.79,0,0,1,1.41-7.68,16,16,0,0,1,4.11-5.66,18.25,18.25,0,0,1,6.08-3.51,21.5,21.5,0,0,1,7.19-1.22,20.49,20.49,0,0,1,6,.9,15.94,15.94,0,0,1,5.38,2.85,17.25,17.25,0,0,1,4.16,5,19.82,19.82,0,0,1,2.29,7.25h-2.81a25.41,25.41,0,0,0-1.26-4.44,14.94,14.94,0,0,0-2.57-4.4,13.28,13.28,0,0,0-4.44-3.36,15.66,15.66,0,0,0-7-1.36,17.48,17.48,0,0,0-6.17,1.08,15.21,15.21,0,0,0-5.05,3,13.73,13.73,0,0,0-3.37,4.77,15.45,15.45,0,0,0-1.21,6.18,12.49,12.49,0,0,0,5.7,11.24,23.46,23.46,0,0,0,6,2.85c2.25.72,4.55,1.39,6.92,2q.84.29,2.43.66a20.83,20.83,0,0,1,3.51,1.22,30.85,30.85,0,0,1,3.92,2.1,15.61,15.61,0,0,1,3.65,3.23,15.79,15.79,0,0,1,2.66,4.78,18.88,18.88,0,0,1,1,6.55,18.16,18.16,0,0,1-1.68,7.86,19.53,19.53,0,0,1-4.49,6.13,20,20,0,0,1-6.45,4,20.55,20.55,0,0,1-7.48,1.41,22.37,22.37,0,0,1-6.49-1,18.41,18.41,0,0,1-6.27-3.32,20.09,20.09,0,0,1-4.86-5.79,19.77,19.77,0,0,1-2.38-8.46Z" transform="translate(-123.99 -371.47)"/><path class="cls-23" d="M327.43,418.92a19.89,19.89,0,0,1,1.45-7.6A18.28,18.28,0,0,1,339,401.16a21,21,0,0,1,15.34,0,18.36,18.36,0,0,1,10.16,10.16,20.72,20.72,0,0,1,0,15.23,18.51,18.51,0,0,1-4.05,6.08,18.25,18.25,0,0,1-6.11,4,20.88,20.88,0,0,1-15.34,0,18.4,18.4,0,0,1-6.12-4,18.64,18.64,0,0,1-4-6.08A19.79,19.79,0,0,1,327.43,418.92Zm1.94,0a17.87,17.87,0,0,0,1.31,6.91,16.54,16.54,0,0,0,3.66,5.52,17,17,0,0,0,5.49,3.67,18.7,18.7,0,0,0,13.75,0,16.78,16.78,0,0,0,9.16-9.19,18.88,18.88,0,0,0,0-13.82,16.7,16.7,0,0,0-9.16-9.19,18.7,18.7,0,0,0-13.75,0,17,17,0,0,0-5.49,3.66,16.69,16.69,0,0,0-3.66,5.53A17.83,17.83,0,0,0,329.37,418.92Z" transform="translate(-123.99 -371.47)"/><path class="cls-23" d="M372.64,407.31h.14a12.76,12.76,0,0,1,3-4.09,13,13,0,0,1,3.53-2.27,13.19,13.19,0,0,1,3.53-1c1.14-.14,2.1-.23,2.9-.28v1.82a25.28,25.28,0,0,0-3.64.42,11.34,11.34,0,0,0-4.47,2.17,13.65,13.65,0,0,0-2.66,3,14.28,14.28,0,0,0-1.5,3.26,15.54,15.54,0,0,0-.66,3.47c-.1,1.19-.14,2.41-.14,3.67v20.1h-2v-37h2Z" transform="translate(-123.99 -371.47)"/><path class="cls-23" d="M397.58,384.59h1.85v15.05h9v1.87h-9v36.13h-1.85V401.51h-7.72v-1.87h7.72Z" transform="translate(-123.99 -371.47)"/><path class="cls-23" d="M410.35,419.12a18,18,0,0,0,1.65,7.75,17,17,0,0,0,4,5.36,15.89,15.89,0,0,0,5.24,3.11,16.42,16.42,0,0,0,5.37,1,15.53,15.53,0,0,0,14.62-9.68h2a18.79,18.79,0,0,1-3,5.08,17.92,17.92,0,0,1-4,3.6,16.53,16.53,0,0,1-4.65,2.1,19,19,0,0,1-5.08.7,17.79,17.79,0,0,1-7.25-1.46,16.73,16.73,0,0,1-5.69-4,18.82,18.82,0,0,1-3.75-6.12,20.85,20.85,0,0,1-1.36-7.6V419a20.69,20.69,0,0,1,1.39-7.68,18.81,18.81,0,0,1,3.81-6.11,17.13,17.13,0,0,1,5.75-4.05,17.77,17.77,0,0,1,19.38,3.49,18.25,18.25,0,0,1,4,5.81,21.13,21.13,0,0,1,1.71,7.64l-.06,1Zm32.37-1.79a15.66,15.66,0,0,0-1.55-6.26,18,18,0,0,0-3.66-5.11,16.44,16.44,0,0,0-5.08-3.39,13.18,13.18,0,0,0-5.83-1.07,15.67,15.67,0,0,0-6,1.17,16.2,16.2,0,0,0-5.05,3.29,16.51,16.51,0,0,0-3.56,5,17,17,0,0,0-1.56,6.36Z" transform="translate(-123.99 -371.47)"/><circle class="cls-24" cx="222.72" cy="47.45" r="13.87"/><path class="cls-25" d="M293.85,404.88c0-6.4,5.19-10.56,11.59-10.56S317,398.48,317,404.88" transform="translate(-123.99 -371.47)"/><path class="cls-26" d="M318.35,441.92a12.53,12.53,0,0,1-25.06,0" transform="translate(-123.99 -371.47)"/><line class="cls-27" x1="203.61" y1="70.45" x2="323.61" y2="70.45"/><path class="cls-28" d="M249.75,419.72c0-5.32,4-10.09,9.31-10.09s8.73,4.77,8.73,10.09" transform="translate(-123.99 -371.47)"/><line class="cls-29" x1="270.3" y1="66.17" x2="270.3" y2="46.73"/><path class="cls-30" d="M385.45,401.4V404a19.15,19.15,0,0,0-2.91.37,9.41,9.41,0,0,0-3.75,1.89,11.9,11.9,0,0,0-2.23,2.65,12.77,12.77,0,0,0-1.26,2.84" transform="translate(-123.99 -371.47)"/><path class="cls-23" d="M380.23,406" transform="translate(-123.99 -371.47)"/></g></svg>