<?xml version="1.0" encoding="utf-8"?>
<!-- Generator: Adobe Illustrator 25.0.0, SVG Export Plug-In . SVG Version: 6.00 Build 0)  -->
<svg version="1.1" xmlns="http://www.w3.org/2000/svg" xmlns:xlink="http://www.w3.org/1999/xlink" x="0px" y="0px"
	 viewBox="0 0 595.28 841.89" style="enable-background:new 0 0 595.28 841.89;" xml:space="preserve">
<style type="text/css">
	.st0{fill:none;stroke:url(#SVGID_1_);stroke-miterlimit:10;}
	.st1{fill:none;stroke:url(#SVGID_2_);stroke-miterlimit:10;}
	.st2{fill:none;stroke:url(#SVGID_3_);stroke-miterlimit:10;}
	.st3{fill:none;stroke:url(#SVGID_4_);stroke-miterlimit:10;}
	.st4{fill:none;stroke:url(#SVGID_5_);stroke-miterlimit:10;}
	.st5{fill:none;stroke:url(#SVGID_6_);stroke-miterlimit:10;}
	.st6{fill:none;stroke:url(#SVGID_7_);stroke-miterlimit:10;}
	.st7{fill:none;stroke:url(#SVGID_8_);stroke-miterlimit:10;}
	.st8{fill:none;stroke:url(#SVGID_9_);stroke-miterlimit:10;}
	.st9{fill:none;stroke:url(#SVGID_10_);stroke-miterlimit:10;}
	.st10{fill:none;stroke:url(#SVGID_11_);stroke-miterlimit:10;}
	.st11{fill:none;stroke:url(#SVGID_12_);stroke-miterlimit:10;}
	.st12{fill:none;stroke:url(#SVGID_13_);stroke-miterlimit:10;}
	.st13{fill:none;stroke:url(#SVGID_14_);stroke-miterlimit:10;}
	.st14{fill:none;stroke:url(#SVGID_15_);stroke-miterlimit:10;}
	.st15{fill:none;stroke:url(#SVGID_16_);stroke-miterlimit:10;}
	.st16{fill:none;stroke:url(#SVGID_17_);stroke-miterlimit:10;}
	.st17{fill:none;stroke:url(#SVGID_18_);stroke-miterlimit:10;}
	.st18{fill:none;stroke:url(#SVGID_19_);stroke-miterlimit:10;}
	.st19{fill:none;stroke:url(#SVGID_20_);}
	.st20{fill:none;stroke:url(#SVGID_21_);stroke-miterlimit:10;}
	.st21{fill:none;stroke:url(#SVGID_22_);stroke-width:0.75;stroke-miterlimit:10;}
	.st22{fill:none;stroke:url(#SVGID_23_);stroke-miterlimit:10;}
	.st23{fill:none;stroke:url(#SVGID_24_);stroke-miterlimit:10;}
	.st24{fill:none;stroke:url(#SVGID_25_);stroke-miterlimit:10;}
	.st25{fill:none;stroke:url(#SVGID_26_);stroke-miterlimit:10;}
	.st26{fill:none;stroke:url(#SVGID_27_);stroke-miterlimit:10;}
	.st27{fill:none;stroke:url(#SVGID_28_);stroke-width:0.5;}
</style>
<g id="Layer_3">
	<linearGradient id="SVGID_1_" gradientUnits="userSpaceOnUse" x1="220.3684" y1="422.2874" x2="129.5904" y2="422.2874">
		<stop  offset="0" style="stop-color:#FFFFFF"/>
		<stop  offset="1" style="stop-color:#000000"/>
	</linearGradient>
	<circle class="st0" cx="174.98" cy="422.29" r="44.89"/>
	
		<linearGradient id="SVGID_2_" gradientUnits="userSpaceOnUse" x1="68.0345" y1="390.205" x2="2.8307" y2="390.205" gradientTransform="matrix(-1 0 0 -1 462 807.8823)">
		<stop  offset="0" style="stop-color:#FFFFFF"/>
		<stop  offset="1" style="stop-color:#000000"/>
	</linearGradient>
	<circle class="st1" cx="426.57" cy="417.68" r="32.1"/>
</g>
<g id="Layer_2">
	<linearGradient id="SVGID_3_" gradientUnits="userSpaceOnUse" x1="174.9794" y1="462.3709" x2="174.9794" y2="382.2038">
		<stop  offset="0" style="stop-color:#721721"/>
		<stop  offset="4.793373e-03" style="stop-color:#761E28"/>
		<stop  offset="0.04" style="stop-color:#934D54"/>
		<stop  offset="0.0783" style="stop-color:#AD777D"/>
		<stop  offset="0.1189" style="stop-color:#C39CA0"/>
		<stop  offset="0.1624" style="stop-color:#D6BBBE"/>
		<stop  offset="0.2098" style="stop-color:#E5D4D6"/>
		<stop  offset="0.2625" style="stop-color:#F1E7E8"/>
		<stop  offset="0.3234" style="stop-color:#F9F5F5"/>
		<stop  offset="0.4001" style="stop-color:#FEFDFD"/>
		<stop  offset="0.5431" style="stop-color:#FFFFFF"/>
		<stop  offset="0.6304" style="stop-color:#FCFEFF"/>
		<stop  offset="0.6944" style="stop-color:#F3FAFD"/>
		<stop  offset="0.751" style="stop-color:#E3F4FB"/>
		<stop  offset="0.8032" style="stop-color:#CCECF9"/>
		<stop  offset="0.8525" style="stop-color:#AFE1F5"/>
		<stop  offset="0.8996" style="stop-color:#8BD4F0"/>
		<stop  offset="0.945" style="stop-color:#61C4EB"/>
		<stop  offset="0.9879" style="stop-color:#31B2E5"/>
		<stop  offset="1" style="stop-color:#22ACE3"/>
	</linearGradient>
	<circle class="st2" cx="174.98" cy="422.29" r="39.58"/>
	<linearGradient id="SVGID_4_" gradientUnits="userSpaceOnUse" x1="214.7647" y1="400.2353" x2="275.3938" y2="400.2353">
		<stop  offset="0" style="stop-color:#FFFFFF"/>
		<stop  offset="0.1911" style="stop-color:#FCFEFF"/>
		<stop  offset="0.3311" style="stop-color:#F3FAFD"/>
		<stop  offset="0.4549" style="stop-color:#E3F4FB"/>
		<stop  offset="0.5692" style="stop-color:#CCECF9"/>
		<stop  offset="0.6772" style="stop-color:#AFE1F5"/>
		<stop  offset="0.7803" style="stop-color:#8BD4F0"/>
		<stop  offset="0.8796" style="stop-color:#61C4EB"/>
		<stop  offset="0.9734" style="stop-color:#31B2E5"/>
		<stop  offset="1" style="stop-color:#22ACE3"/>
	</linearGradient>
	<line class="st3" x1="214.76" y1="400.24" x2="275.39" y2="400.24"/>
	<linearGradient id="SVGID_5_" gradientUnits="userSpaceOnUse" x1="220.1356" y1="446.6471" x2="280.7647" y2="446.6471">
		<stop  offset="0" style="stop-color:#FFFFFF"/>
		<stop  offset="1" style="stop-color:#721721"/>
	</linearGradient>
	<line class="st4" x1="220.14" y1="446.65" x2="280.76" y2="446.65"/>
	<linearGradient id="SVGID_6_" gradientUnits="userSpaceOnUse" x1="327.6018" y1="446.6471" x2="440.4137" y2="446.6471">
		<stop  offset="0" style="stop-color:#FFFFFF"/>
		<stop  offset="1" style="stop-color:#721721"/>
	</linearGradient>
	<line class="st5" x1="327.6" y1="446.65" x2="440.41" y2="446.65"/>
	<linearGradient id="SVGID_7_" gradientUnits="userSpaceOnUse" x1="315.5861" y1="404.8577" x2="315.5861" y2="384.5659">
		<stop  offset="0" style="stop-color:#FFFFFF"/>
		<stop  offset="0.1911" style="stop-color:#FCFEFF"/>
		<stop  offset="0.3311" style="stop-color:#F3FAFD"/>
		<stop  offset="0.4549" style="stop-color:#E3F4FB"/>
		<stop  offset="0.5692" style="stop-color:#CCECF9"/>
		<stop  offset="0.6772" style="stop-color:#AFE1F5"/>
		<stop  offset="0.7803" style="stop-color:#8BD4F0"/>
		<stop  offset="0.8796" style="stop-color:#61C4EB"/>
		<stop  offset="0.9734" style="stop-color:#31B2E5"/>
		<stop  offset="1" style="stop-color:#22ACE3"/>
	</linearGradient>
	<path class="st6" d="M305.18,385.07c10.93,0,20.31,8.86,20.31,19.79"/>
	<linearGradient id="SVGID_8_" gradientUnits="userSpaceOnUse" x1="294.6046" y1="404.8577" x2="294.6046" y2="384.5659">
		<stop  offset="0" style="stop-color:#FFFFFF"/>
		<stop  offset="0.1911" style="stop-color:#FCFEFF"/>
		<stop  offset="0.3311" style="stop-color:#F3FAFD"/>
		<stop  offset="0.4549" style="stop-color:#E3F4FB"/>
		<stop  offset="0.5692" style="stop-color:#CCECF9"/>
		<stop  offset="0.6772" style="stop-color:#AFE1F5"/>
		<stop  offset="0.7803" style="stop-color:#8BD4F0"/>
		<stop  offset="0.8796" style="stop-color:#61C4EB"/>
		<stop  offset="0.9734" style="stop-color:#31B2E5"/>
		<stop  offset="1" style="stop-color:#22ACE3"/>
	</linearGradient>
	<path class="st7" d="M284.53,404.86c0-10.93,9.72-19.79,20.65-19.79"/>
	<linearGradient id="SVGID_9_" gradientUnits="userSpaceOnUse" x1="357.3107" y1="415.8518" x2="357.3107" y2="395.5601">
		<stop  offset="0" style="stop-color:#FFFFFF"/>
		<stop  offset="0.1911" style="stop-color:#FCFEFF"/>
		<stop  offset="0.3311" style="stop-color:#F3FAFD"/>
		<stop  offset="0.4549" style="stop-color:#E3F4FB"/>
		<stop  offset="0.5692" style="stop-color:#CCECF9"/>
		<stop  offset="0.6772" style="stop-color:#AFE1F5"/>
		<stop  offset="0.7803" style="stop-color:#8BD4F0"/>
		<stop  offset="0.8796" style="stop-color:#61C4EB"/>
		<stop  offset="0.9734" style="stop-color:#31B2E5"/>
		<stop  offset="1" style="stop-color:#22ACE3"/>
	</linearGradient>
	<path class="st8" d="M346.47,396.06c10.93,0,21.17,8.86,21.17,19.79"/>
	<linearGradient id="SVGID_10_" gradientUnits="userSpaceOnUse" x1="335.6048" y1="415.8518" x2="335.6048" y2="395.5601">
		<stop  offset="0" style="stop-color:#FFFFFF"/>
		<stop  offset="0.1911" style="stop-color:#FCFEFF"/>
		<stop  offset="0.3311" style="stop-color:#F3FAFD"/>
		<stop  offset="0.4549" style="stop-color:#E3F4FB"/>
		<stop  offset="0.5692" style="stop-color:#CCECF9"/>
		<stop  offset="0.6772" style="stop-color:#AFE1F5"/>
		<stop  offset="0.7803" style="stop-color:#8BD4F0"/>
		<stop  offset="0.8796" style="stop-color:#61C4EB"/>
		<stop  offset="0.9734" style="stop-color:#31B2E5"/>
		<stop  offset="1" style="stop-color:#22ACE3"/>
	</linearGradient>
	<path class="st9" d="M325.24,415.85c0-10.93,10.31-19.79,21.24-19.79"/>
	<linearGradient id="SVGID_11_" gradientUnits="userSpaceOnUse" x1="437.3724" y1="416.1742" x2="437.3724" y2="395.8824">
		<stop  offset="0" style="stop-color:#FFFFFF"/>
		<stop  offset="0.1911" style="stop-color:#FCFEFF"/>
		<stop  offset="0.3311" style="stop-color:#F3FAFD"/>
		<stop  offset="0.4549" style="stop-color:#E3F4FB"/>
		<stop  offset="0.5692" style="stop-color:#CCECF9"/>
		<stop  offset="0.6772" style="stop-color:#AFE1F5"/>
		<stop  offset="0.7803" style="stop-color:#8BD4F0"/>
		<stop  offset="0.8796" style="stop-color:#61C4EB"/>
		<stop  offset="0.9734" style="stop-color:#31B2E5"/>
		<stop  offset="1" style="stop-color:#22ACE3"/>
	</linearGradient>
	<path class="st10" d="M426.54,396.38c10.93,0,21.17,8.86,21.17,19.79"/>
	<linearGradient id="SVGID_12_" gradientUnits="userSpaceOnUse" x1="415.6665" y1="416.1742" x2="415.6665" y2="395.8824">
		<stop  offset="0" style="stop-color:#FFFFFF"/>
		<stop  offset="0.1911" style="stop-color:#FCFEFF"/>
		<stop  offset="0.3311" style="stop-color:#F3FAFD"/>
		<stop  offset="0.4549" style="stop-color:#E3F4FB"/>
		<stop  offset="0.5692" style="stop-color:#CCECF9"/>
		<stop  offset="0.6772" style="stop-color:#AFE1F5"/>
		<stop  offset="0.7803" style="stop-color:#8BD4F0"/>
		<stop  offset="0.8796" style="stop-color:#61C4EB"/>
		<stop  offset="0.9734" style="stop-color:#31B2E5"/>
		<stop  offset="1" style="stop-color:#22ACE3"/>
	</linearGradient>
	<path class="st11" d="M405.3,416.17c0-10.93,10.31-19.79,21.24-19.79"/>
	<linearGradient id="SVGID_13_" gradientUnits="userSpaceOnUse" x1="337.3325" y1="394.3188" x2="397.9616" y2="394.3188">
		<stop  offset="0" style="stop-color:#FFFFFF"/>
		<stop  offset="0.1911" style="stop-color:#FCFEFF"/>
		<stop  offset="0.3311" style="stop-color:#F3FAFD"/>
		<stop  offset="0.4549" style="stop-color:#E3F4FB"/>
		<stop  offset="0.5692" style="stop-color:#CCECF9"/>
		<stop  offset="0.6772" style="stop-color:#AFE1F5"/>
		<stop  offset="0.7803" style="stop-color:#8BD4F0"/>
		<stop  offset="0.8796" style="stop-color:#61C4EB"/>
		<stop  offset="0.9734" style="stop-color:#31B2E5"/>
		<stop  offset="1" style="stop-color:#22ACE3"/>
	</linearGradient>
	<line class="st12" x1="337.33" y1="394.32" x2="397.96" y2="394.32"/>
	<linearGradient id="SVGID_14_" gradientUnits="userSpaceOnUse" x1="293.5164" y1="464.325" x2="293.5164" y2="441.9203">
		<stop  offset="0" style="stop-color:#721721"/>
		<stop  offset="8.825183e-03" style="stop-color:#761E28"/>
		<stop  offset="0.0736" style="stop-color:#934D54"/>
		<stop  offset="0.1442" style="stop-color:#AD777D"/>
		<stop  offset="0.2189" style="stop-color:#C39CA0"/>
		<stop  offset="0.2991" style="stop-color:#D6BBBE"/>
		<stop  offset="0.3863" style="stop-color:#E5D4D6"/>
		<stop  offset="0.4833" style="stop-color:#F1E7E8"/>
		<stop  offset="0.5955" style="stop-color:#F9F5F5"/>
		<stop  offset="0.7367" style="stop-color:#FEFDFD"/>
		<stop  offset="1" style="stop-color:#FFFFFF"/>
	</linearGradient>
	<path class="st13" d="M305.18,463.82c-12.1,0-22.83-9.81-22.83-21.9"/>
	<linearGradient id="SVGID_15_" gradientUnits="userSpaceOnUse" x1="317.1634" y1="464.325" x2="317.1634" y2="441.9203">
		<stop  offset="0" style="stop-color:#721721"/>
		<stop  offset="8.825183e-03" style="stop-color:#761E28"/>
		<stop  offset="0.0736" style="stop-color:#934D54"/>
		<stop  offset="0.1442" style="stop-color:#AD777D"/>
		<stop  offset="0.2189" style="stop-color:#C39CA0"/>
		<stop  offset="0.2991" style="stop-color:#D6BBBE"/>
		<stop  offset="0.3863" style="stop-color:#E5D4D6"/>
		<stop  offset="0.4833" style="stop-color:#F1E7E8"/>
		<stop  offset="0.5955" style="stop-color:#F9F5F5"/>
		<stop  offset="0.7367" style="stop-color:#FEFDFD"/>
		<stop  offset="1" style="stop-color:#FFFFFF"/>
	</linearGradient>
	<path class="st14" d="M328.65,441.92c0,12.1-11.37,21.9-23.47,21.9"/>
</g>
<g id="Layer_1">
	<linearGradient id="SVGID_16_" gradientUnits="userSpaceOnUse" x1="227.0588" y1="419.7224" x2="227.0588" y2="439.1593">
		<stop  offset="0" style="stop-color:#FFFFFF"/>
		<stop  offset="1" style="stop-color:#000000"/>
	</linearGradient>
	<line class="st15" x1="227.06" y1="439.16" x2="227.06" y2="419.72"/>
	<linearGradient id="SVGID_17_" gradientUnits="userSpaceOnUse" x1="158.2941" y1="442.446" x2="280.7647" y2="442.446">
		<stop  offset="0" style="stop-color:#FFFFFF"/>
		<stop  offset="1" style="stop-color:#000000"/>
	</linearGradient>
	<line class="st16" x1="158.29" y1="442.45" x2="280.76" y2="442.45"/>
	<linearGradient id="SVGID_18_" gradientUnits="userSpaceOnUse" x1="156.1765" y1="403.2206" x2="276.6324" y2="403.2206">
		<stop  offset="0" style="stop-color:#FFFFFF"/>
		<stop  offset="1" style="stop-color:#000000"/>
	</linearGradient>
	<line class="st17" x1="156.18" y1="403.22" x2="276.63" y2="403.22"/>
	<linearGradient id="SVGID_19_" gradientUnits="userSpaceOnUse" x1="156.1765" y1="423" x2="279.9412" y2="423">
		<stop  offset="0" style="stop-color:#FFFFFF"/>
		<stop  offset="1" style="stop-color:#000000"/>
	</linearGradient>
	<line class="st18" x1="156.18" y1="423" x2="279.94" y2="423"/>
	<linearGradient id="SVGID_20_" gradientUnits="userSpaceOnUse" x1="426.7422" y1="418.3824" x2="426.7422" y2="404.8529">
		<stop  offset="0" style="stop-color:#FFFFFF"/>
		<stop  offset="1" style="stop-color:#000000"/>
	</linearGradient>
	<path class="st19" d="M439.74,417.88c-0.07-1.75-0.49-3.4-1.25-4.95c-0.76-1.55-1.75-2.9-2.94-4.05c-1.2-1.15-2.56-2.04-4.09-2.68
		c-1.53-0.64-3.09-0.92-4.69-0.85c-1.7,0-3.32,0.31-4.84,0.93c-1.53,0.62-2.88,1.49-4.06,2.6c-1.18,1.11-2.13,2.43-2.86,3.96
		c-0.73,1.53-1.15,3.21-1.25,5.03H439.74z"/>
	<linearGradient id="SVGID_21_" gradientUnits="userSpaceOnUse" x1="174.8106" y1="393.4203" x2="174.8106" y2="451.5967">
		<stop  offset="0" style="stop-color:#FFFFFF"/>
		<stop  offset="1" style="stop-color:#000000"/>
	</linearGradient>
	<circle class="st20" cx="174.81" cy="422.51" r="28.59"/>
	<g>
		<path d="M205.27,442.05c-1.18,2-2.74,3.96-4.67,5.89c-1.93,1.93-4.18,3.68-6.73,5.23c-2.56,1.56-5.42,2.8-8.6,3.74
			c-3.18,0.93-6.58,1.4-10.19,1.4c-4.99,0-9.65-0.89-13.98-2.66c-4.33-1.78-8.13-4.25-11.41-7.43s-5.84-6.96-7.71-11.36
			c-1.87-4.39-2.8-9.18-2.8-14.35c0-5.17,0.93-9.96,2.8-14.35c1.87-4.39,4.44-8.18,7.71-11.36c3.27-3.18,7.07-5.66,11.41-7.43
			c4.33-1.78,8.99-2.66,13.98-2.66c3.68,0,7.09,0.5,10.24,1.5c3.15,1,6,2.29,8.55,3.88c2.56,1.59,4.8,3.38,6.73,5.38
			c1.93,2,3.52,3.96,4.77,5.89h-3.27c-0.69-0.94-1.75-2.2-3.18-3.76c-1.43-1.57-3.29-3.12-5.56-4.66c-2.28-1.54-4.94-2.88-7.99-4.05
			c-3.05-1.16-6.48-1.74-10.28-1.74c-4.61,0-8.93,0.84-12.95,2.53c-4.02,1.69-7.53,4.02-10.52,6.98c-2.99,2.97-5.34,6.48-7.06,10.55
			c-1.71,4.06-2.57,8.5-2.57,13.31c0,4.81,0.86,9.25,2.57,13.31c1.71,4.06,4.07,7.58,7.06,10.55c2.99,2.97,6.5,5.3,10.52,6.98
			c4.02,1.69,8.33,2.53,12.95,2.53c4.05,0,7.63-0.6,10.75-1.79c3.12-1.19,5.8-2.56,8.04-4.09c2.24-1.54,4.05-3.07,5.42-4.61
			c1.37-1.54,2.31-2.65,2.8-3.34H205.27z"/>
		<path d="M186.97,422.65c0-2.32,0.41-4.47,1.24-6.48c0.82-2,1.97-3.74,3.44-5.21c1.47-1.47,3.21-2.62,5.21-3.44
			c2-0.82,4.18-1.24,6.54-1.24c2.36,0,4.53,0.41,6.54,1.24c2,0.82,3.74,1.97,5.21,3.44c1.47,1.47,2.62,3.21,3.44,5.21
			c0.82,2,1.24,4.16,1.24,6.48c0,2.36-0.41,4.52-1.24,6.51c-0.82,1.98-1.97,3.71-3.44,5.18c-1.47,1.47-3.21,2.62-5.21,3.44
			c-2,0.82-4.18,1.24-6.54,1.24c-2.36,0-4.53-0.41-6.54-1.24c-2-0.82-3.74-1.97-5.21-3.44c-1.47-1.47-2.62-3.2-3.44-5.18
			C187.38,427.17,186.97,425,186.97,422.65z M188.62,422.65c0,2.12,0.37,4.08,1.12,5.89c0.75,1.81,1.79,3.38,3.12,4.71
			c1.33,1.33,2.89,2.38,4.68,3.12c1.79,0.75,3.74,1.12,5.86,1.12c2.12,0,4.07-0.37,5.86-1.12c1.79-0.75,3.35-1.79,4.68-3.12
			c1.33-1.33,2.37-2.9,3.12-4.71c0.75-1.81,1.12-3.77,1.12-5.89c0-2.12-0.37-4.08-1.12-5.89c-0.75-1.8-1.79-3.38-3.12-4.71
			c-1.33-1.33-2.9-2.37-4.68-3.12c-1.79-0.75-3.74-1.12-5.86-1.12c-2.12,0-4.07,0.37-5.86,1.12c-1.79,0.75-3.35,1.79-4.68,3.12
			c-1.33,1.33-2.38,2.91-3.12,4.71C188.99,418.56,188.62,420.53,188.62,422.65z"/>
		<path d="M224.42,412.42h0.12c0.74-1.47,1.61-2.65,2.64-3.53c1.02-0.88,2.06-1.54,3.1-1.99c1.04-0.45,2.01-0.74,2.91-0.86
			c0.9-0.12,1.61-0.18,2.15-0.18c1.96,0,3.77,0.34,5.43,1.01c1.66,0.67,3.04,1.67,4.14,2.97c0.45,0.49,0.87,1.06,1.26,1.72
			c0.39,0.65,0.68,1.35,0.89,2.09h0.12c0.16-0.45,0.41-1.01,0.74-1.69c0.33-0.67,0.84-1.38,1.53-2.12c1.14-1.27,2.54-2.25,4.2-2.94
			c1.66-0.69,3.4-1.04,5.24-1.04c1.96,0,3.68,0.29,5.15,0.86c1.47,0.57,2.72,1.37,3.74,2.39c1.35,1.31,2.31,2.98,2.88,5.03
			c0.57,2.04,0.86,4.31,0.86,6.81v18.21h-1.72v-18.21c0-2.25-0.24-4.29-0.74-6.13c-0.49-1.84-1.35-3.37-2.58-4.6
			c-1.76-1.84-4.29-2.76-7.6-2.76c-1.43,0-2.93,0.3-4.51,0.89c-1.57,0.59-2.87,1.54-3.89,2.85c-0.53,0.7-0.96,1.35-1.29,1.96
			c-0.33,0.61-0.58,1.29-0.77,2.02c-0.18,0.74-0.31,1.56-0.37,2.48c-0.06,0.92-0.09,2.01-0.09,3.28v18.21h-1.72v-18.21
			c0.04-1.27,0.02-2.38-0.06-3.34c-0.08-0.96-0.23-1.81-0.43-2.55c-0.21-0.74-0.46-1.4-0.77-1.99c-0.31-0.59-0.67-1.17-1.07-1.75
			c-1.88-2.45-4.74-3.74-8.59-3.86c-0.82-0.04-1.6,0.03-2.36,0.21c-0.76,0.18-1.48,0.43-2.18,0.74c-0.7,0.31-1.33,0.69-1.9,1.13
			c-0.57,0.45-1.06,0.94-1.47,1.47c-0.9,1.02-1.63,2.29-2.18,3.8c-0.55,1.51-0.83,3.46-0.83,5.83v18.52h-1.72v-32.5h1.72V412.42z"/>
		<path d="M279.71,389.31h3.08l-5.98,14.4h-3.08L279.71,389.31z"/>
		<path d="M288.19,441.9c0.43,3.3,1.32,6.02,2.66,8.13c1.34,2.12,2.85,3.77,4.53,4.95c1.68,1.19,3.43,2,5.24,2.43
			c1.81,0.44,3.37,0.66,4.67,0.66c2.18,0,4.32-0.39,6.4-1.17c2.09-0.78,3.94-1.89,5.56-3.32c1.62-1.43,2.93-3.17,3.93-5.2
			c1-2.03,1.5-4.29,1.5-6.79c0-3.18-0.61-5.79-1.82-7.82c-1.22-2.03-2.73-3.65-4.53-4.87c-1.81-1.22-3.72-2.15-5.75-2.81
			c-2.03-0.65-3.88-1.2-5.56-1.64c-1.5-0.37-3.29-0.89-5.38-1.54c-2.09-0.65-4.08-1.61-5.98-2.86c-1.9-1.25-3.51-2.92-4.81-5.01
			c-1.31-2.09-1.96-4.76-1.96-8c-0.06-2.87,0.41-5.43,1.4-7.68c1-2.25,2.37-4.13,4.11-5.66c1.74-1.53,3.77-2.7,6.08-3.51
			c2.3-0.81,4.71-1.22,7.2-1.22c2.06,0,4.07,0.3,6.03,0.9c1.96,0.6,3.75,1.55,5.38,2.85c1.62,1.3,3.01,2.96,4.16,4.99
			c1.15,2.03,1.92,4.44,2.29,7.25h-2.8c-0.25-1.37-0.67-2.85-1.26-4.44c-0.59-1.59-1.45-3.05-2.57-4.39
			c-1.12-1.34-2.6-2.46-4.44-3.37c-1.84-0.9-4.16-1.36-6.96-1.36c-2.18,0-4.24,0.36-6.17,1.08c-1.93,0.72-3.62,1.73-5.05,3.04
			c-1.43,1.31-2.56,2.9-3.37,4.77c-0.81,1.87-1.22,3.93-1.22,6.18c0,2.75,0.51,5.01,1.54,6.79s2.41,3.26,4.16,4.45
			c1.74,1.19,3.74,2.14,5.98,2.85c2.24,0.72,4.55,1.39,6.92,2.01c0.56,0.19,1.37,0.41,2.43,0.66c1.06,0.25,2.23,0.66,3.51,1.22
			c1.28,0.56,2.59,1.26,3.93,2.11c1.34,0.84,2.55,1.92,3.65,3.23c1.09,1.31,1.98,2.9,2.66,4.77c0.69,1.87,1.03,4.06,1.03,6.55
			c0,2.87-0.56,5.49-1.68,7.86c-1.12,2.37-2.62,4.42-4.49,6.13c-1.87,1.72-4.02,3.04-6.45,3.98c-2.43,0.93-4.92,1.4-7.48,1.4
			c-2.06,0-4.22-0.35-6.5-1.03c-2.28-0.69-4.36-1.8-6.26-3.32c-1.9-1.52-3.52-3.45-4.86-5.79c-1.34-2.34-2.14-5.16-2.38-8.46H288.19
			z"/>
		<path d="M327.43,418.92c0-2.72,0.48-5.25,1.45-7.6c0.97-2.35,2.31-4.39,4.04-6.11c1.73-1.73,3.77-3.07,6.11-4.04
			c2.35-0.97,4.91-1.45,7.67-1.45c2.76,0,5.32,0.48,7.67,1.45c2.35,0.97,4.39,2.31,6.11,4.04c1.73,1.73,3.07,3.77,4.04,6.11
			c0.97,2.35,1.45,4.88,1.45,7.6c0,2.76-0.48,5.31-1.45,7.63c-0.97,2.33-2.31,4.35-4.04,6.08c-1.73,1.73-3.77,3.07-6.11,4.04
			s-4.91,1.45-7.67,1.45c-2.76,0-5.32-0.48-7.67-1.45c-2.35-0.97-4.39-2.31-6.11-4.04c-1.73-1.73-3.07-3.75-4.04-6.08
			C327.92,424.23,327.43,421.68,327.43,418.92z M329.37,418.92c0,2.49,0.44,4.79,1.31,6.91c0.87,2.12,2.1,3.96,3.66,5.53
			c1.57,1.57,3.4,2.79,5.49,3.66c2.1,0.88,4.39,1.31,6.87,1.31c2.49,0,4.78-0.44,6.87-1.31c2.1-0.87,3.93-2.1,5.49-3.66
			c1.57-1.57,2.79-3.41,3.66-5.53c0.87-2.12,1.31-4.42,1.31-6.91c0-2.49-0.44-4.79-1.31-6.91c-0.88-2.12-2.1-3.96-3.66-5.53
			c-1.57-1.57-3.4-2.79-5.49-3.66c-2.1-0.87-4.39-1.31-6.87-1.31c-2.49,0-4.78,0.44-6.87,1.31c-2.1,0.88-3.93,2.1-5.49,3.66
			c-1.57,1.57-2.79,3.41-3.66,5.53C329.8,414.13,329.37,416.43,329.37,418.92z"/>
		<path d="M372.64,407.31h0.14c0.84-1.72,1.83-3.09,2.97-4.09c1.14-1,2.32-1.76,3.53-2.27c1.21-0.51,2.39-0.84,3.53-0.98
			c1.14-0.14,2.11-0.23,2.9-0.28v1.82c-1.12,0.05-2.33,0.19-3.63,0.42c-1.31,0.23-2.8,0.96-4.47,2.17c-1.12,0.98-2,2-2.66,3.05
			c-0.65,1.05-1.15,2.14-1.5,3.26c-0.35,1.12-0.57,2.28-0.66,3.47c-0.09,1.19-0.14,2.42-0.14,3.68v20.1h-1.96V400.6h1.96V407.31z"/>
		<path d="M397.58,384.59h1.85v15.05h8.98v1.86h-8.98v36.13h-1.85v-36.13h-7.73v-1.86h7.73V384.59z"/>
		<path d="M410.35,419.12c0.04,3,0.59,5.58,1.65,7.74c1.06,2.17,2.38,3.95,3.98,5.36c1.59,1.41,3.34,2.44,5.24,3.11
			c1.9,0.67,3.69,1,5.37,1c3.19,0,6.08-0.83,8.67-2.49c2.59-1.66,4.57-4.05,5.95-7.19h2.01c-0.78,1.94-1.77,3.63-2.98,5.08
			c-1.21,1.45-2.53,2.65-3.98,3.59c-1.45,0.95-3,1.65-4.66,2.11c-1.66,0.46-3.35,0.69-5.08,0.69c-2.63,0-5.05-0.48-7.25-1.45
			c-2.2-0.97-4.1-2.32-5.69-4.04c-1.6-1.73-2.85-3.77-3.75-6.12c-0.91-2.35-1.36-4.88-1.36-7.6v0.07c0-2.77,0.46-5.32,1.39-7.67
			c0.93-2.35,2.2-4.39,3.81-6.12c1.62-1.73,3.53-3.08,5.75-4.04c2.22-0.97,4.6-1.45,7.14-1.45c2.28,0,4.48,0.43,6.59,1.28
			c2.11,0.85,4,2.07,5.65,3.66c1.66,1.59,2.99,3.53,4.01,5.81c1.01,2.28,1.58,4.83,1.71,7.64l-0.06,1.04H410.35z M442.72,417.33
			c-0.09-2.21-0.6-4.3-1.55-6.26c-0.95-1.96-2.17-3.66-3.66-5.12c-1.49-1.45-3.18-2.58-5.08-3.39c-1.9-0.81-3.84-1.16-5.83-1.07
			c-2.12,0-4.12,0.39-6.02,1.18c-1.9,0.78-3.58,1.88-5.05,3.28c-1.47,1.41-2.65,3.08-3.56,5.01c-0.91,1.94-1.42,4.06-1.55,6.36
			H442.72z"/>
	</g>
	<linearGradient id="SVGID_22_" gradientUnits="userSpaceOnUse" x1="346.7093" y1="404.6738" x2="346.7093" y2="433.1609">
		<stop  offset="0" style="stop-color:#FFFFFF"/>
		<stop  offset="1" style="stop-color:#000000"/>
	</linearGradient>
	<circle class="st21" cx="346.71" cy="418.92" r="13.87"/>
	<linearGradient id="SVGID_23_" gradientUnits="userSpaceOnUse" x1="305.4402" y1="404.8824" x2="305.4402" y2="393.8188">
		<stop  offset="0" style="stop-color:#FFFFFF"/>
		<stop  offset="1" style="stop-color:#000000"/>
	</linearGradient>
	<path class="st22" d="M293.85,404.88c0-6.4,5.19-10.56,11.59-10.56c6.4,0,11.59,4.16,11.59,10.56"/>
	<linearGradient id="SVGID_24_" gradientUnits="userSpaceOnUse" x1="305.8206" y1="441.9203" x2="305.8206" y2="454.9546">
		<stop  offset="0" style="stop-color:#FFFFFF"/>
		<stop  offset="1" style="stop-color:#000000"/>
	</linearGradient>
	<path class="st23" d="M318.35,441.92c0,6.92-5.61,12.53-12.53,12.53s-12.53-5.61-12.53-12.53"/>
	<linearGradient id="SVGID_25_" gradientUnits="userSpaceOnUse" x1="327.6018" y1="441.9203" x2="447.606" y2="441.9203">
		<stop  offset="0" style="stop-color:#FFFFFF"/>
		<stop  offset="1" style="stop-color:#000000"/>
	</linearGradient>
	<line class="st24" x1="327.6" y1="441.92" x2="447.61" y2="441.92"/>
	<linearGradient id="SVGID_26_" gradientUnits="userSpaceOnUse" x1="258.7721" y1="419.7224" x2="258.7721" y2="409.1324">
		<stop  offset="0" style="stop-color:#FFFFFF"/>
		<stop  offset="1" style="stop-color:#000000"/>
	</linearGradient>
	<path class="st25" d="M249.75,419.72c0-5.32,3.99-10.09,9.31-10.09c5.32,0,8.74,4.77,8.74,10.09"/>
	<linearGradient id="SVGID_27_" gradientUnits="userSpaceOnUse" x1="394.2941" y1="418.2007" x2="394.2941" y2="437.6377">
		<stop  offset="0" style="stop-color:#FFFFFF"/>
		<stop  offset="1" style="stop-color:#000000"/>
	</linearGradient>
	<line class="st26" x1="394.29" y1="437.64" x2="394.29" y2="418.2"/>
	<linearGradient id="SVGID_28_" gradientUnits="userSpaceOnUse" x1="375.0625" y1="406.5998" x2="385.6985" y2="406.5998">
		<stop  offset="0" style="stop-color:#FFFFFF"/>
		<stop  offset="1" style="stop-color:#000000"/>
	</linearGradient>
	<path class="st27" d="M385.45,401.4v2.58c-0.94,0.04-1.81,0.16-2.91,0.37c-1.09,0.2-2.34,0.83-3.75,1.89
		c-0.94,0.85-1.68,1.74-2.23,2.65c-0.55,0.92-0.97,1.86-1.26,2.84"/>
	<path d="M380.23,405.96"/>
</g>
</svg>
